<svg width="390" height="116" viewBox="0 0 390 116" fill="none" xmlns="http://www.w3.org/2000/svg">
<g clip-path="url(#clip0_2098_3256)" filter="url(#filter0_d_2098_3256)">
<rect width="390" height="82" transform="translate(0 20)" fill="white"/>
<rect y="20" width="78.3629" height="81.9595" fill="white"/>
<path d="M48.7903 59.1569V52.3674C48.7903 51.7135 48.7897 51.3864 48.7102 51.0821C48.6397 50.8124 48.5241 50.5572 48.3675 50.3266C48.1909 50.0664 47.9453 49.8507 47.4532 49.4201L41.579 44.2802C40.6653 43.4807 40.2085 43.0811 39.6943 42.9291C39.2413 42.7951 38.7584 42.7951 38.3054 42.9291C37.7916 43.081 37.3355 43.4802 36.4231 44.2785L30.547 49.4201C30.0549 49.8507 29.8094 50.0664 29.6328 50.3267C29.4762 50.5572 29.3597 50.8124 29.2892 51.0821C29.2097 51.3864 29.2097 51.7135 29.2097 52.3674V59.1569C29.2097 60.2973 29.2097 60.8673 29.396 61.3171C29.6444 61.9168 30.1206 62.3939 30.7203 62.6423C31.1701 62.8286 31.7403 62.8286 32.8808 62.8286C34.0212 62.8286 34.592 62.8286 35.0418 62.6423C35.6415 62.3939 36.1176 61.9169 36.366 61.3172C36.5523 60.8674 36.5524 60.2972 36.5524 59.1568V57.933C36.5524 56.5812 37.6482 55.4854 39 55.4854C40.3517 55.4854 41.4476 56.5812 41.4476 57.933V59.1568C41.4476 60.2972 41.4476 60.8674 41.6339 61.3172C41.8823 61.9169 42.3584 62.3939 42.9582 62.6423C43.408 62.8286 43.9782 62.8286 45.1186 62.8286C46.259 62.8286 46.8299 62.8286 47.2797 62.6423C47.8794 62.3939 48.3554 61.9168 48.6038 61.3171C48.7901 60.8673 48.7903 60.2973 48.7903 59.1569Z" fill="#11453B" stroke="#11453B" stroke-width="2" stroke-linecap="round" stroke-linejoin="round"/>
<path d="M30.408 75.8823H28.956V72.2463H24.96V75.8823H23.52V67.3743H24.96V70.8903H28.956V67.3743H30.408V75.8823ZM34.8743 74.8143C35.7383 74.8143 36.5063 74.1783 36.5063 72.9543C36.5063 71.7423 35.7383 71.1183 34.8743 71.1183C34.0223 71.1183 33.2423 71.7423 33.2423 72.9543C33.2423 74.1663 34.0223 74.8143 34.8743 74.8143ZM34.8743 69.8583C36.6263 69.8583 37.9103 71.1663 37.9103 72.9543C37.9103 74.7543 36.6263 76.0623 34.8743 76.0623C33.1343 76.0623 31.8503 74.7543 31.8503 72.9543C31.8503 71.1663 33.1343 69.8583 34.8743 69.8583ZM40.6355 75.8823H39.2555V70.0383H40.5875V70.7823C40.9235 70.1823 41.6555 69.8703 42.3155 69.8703C43.0835 69.8703 43.7555 70.2183 44.0675 70.9023C44.5235 70.1343 45.2075 69.8703 45.9635 69.8703C47.0195 69.8703 48.0275 70.5423 48.0275 72.0903V75.8823H46.6835V72.3183C46.6835 71.6343 46.3355 71.1183 45.5555 71.1183C44.8235 71.1183 44.3435 71.6943 44.3435 72.4143V75.8823H42.9755V72.3183C42.9755 71.6463 42.6395 71.1183 41.8475 71.1183C41.1035 71.1183 40.6355 71.6703 40.6355 72.4143V75.8823ZM50.704 72.3183H53.572C53.548 71.6343 53.092 71.0223 52.132 71.0223C51.256 71.0223 50.752 71.6943 50.704 72.3183ZM53.728 73.8423L54.904 74.2143C54.592 75.2343 53.668 76.0623 52.264 76.0623C50.68 76.0623 49.276 74.9103 49.276 72.9303C49.276 71.0823 50.644 69.8583 52.12 69.8583C53.92 69.8583 54.976 71.0463 54.976 72.8943C54.976 73.1223 54.952 73.3143 54.94 73.3383H50.668C50.704 74.2263 51.4 74.8623 52.264 74.8623C53.104 74.8623 53.536 74.4183 53.728 73.8423Z" fill="#11453B"/>
<rect x="78" y="20" width="78.3629" height="81.9595" fill="white"/>
<path d="M123 48.7189V51.7189M123 51.7189V54.7189M123 51.7189H126M123 51.7189H120M117.75 47.5939C117.75 49.4579 116.239 50.9689 114.375 50.9689C112.511 50.9689 111 49.4579 111 47.5939C111 45.7299 112.511 44.2189 114.375 44.2189C116.239 44.2189 117.75 45.7299 117.75 47.5939ZM108.001 60.4532C108 60.4169 108 60.3804 108 60.3439C108 56.8231 110.854 53.9689 114.375 53.9689C117.896 53.9689 120.75 56.8231 120.75 60.3439V60.3464C120.75 60.3821 120.75 60.4177 120.749 60.4532C118.887 61.5741 116.706 62.2189 114.375 62.2189C112.044 62.2189 109.863 61.5741 108.001 60.4532Z" stroke="#8D8E8D" stroke-width="2" stroke-linecap="round" stroke-linejoin="round"/>
<path d="M96.752 75.7069H91.58V67.1989H96.752V68.2909H92.756V70.9069H96.38V72.0109H92.756V74.6149H96.752V75.7069ZM99.3729 75.7069H98.2569V69.9349H99.3369V70.7029C99.5129 70.3989 99.7609 70.1669 100.081 70.0069C100.401 69.8469 100.737 69.7669 101.089 69.7669C101.465 69.7669 101.809 69.8589 102.121 70.0429C102.433 70.2269 102.665 70.4989 102.817 70.8589C103.217 70.1309 103.861 69.7669 104.749 69.7669C105.301 69.7669 105.769 69.9549 106.153 70.3309C106.545 70.7069 106.741 71.2509 106.741 71.9629V75.7069H105.625V72.0829C105.625 71.6829 105.521 71.3629 105.313 71.1229C105.113 70.8829 104.809 70.7629 104.401 70.7629C104.009 70.7629 103.689 70.9029 103.441 71.1829C103.193 71.4549 103.069 71.7989 103.069 72.2149V75.7069H101.941V72.0829C101.941 71.6829 101.837 71.3629 101.629 71.1229C101.429 70.8829 101.125 70.7629 100.717 70.7629C100.317 70.7629 99.9929 70.8989 99.7449 71.1709C99.4969 71.4429 99.3729 71.7949 99.3729 72.2269V75.7069ZM109.662 77.9869H108.546V69.9349H109.638V70.8349C109.806 70.5309 110.058 70.2829 110.394 70.0909C110.73 69.8989 111.122 69.8029 111.57 69.8029C112.402 69.8029 113.05 70.0869 113.514 70.6549C113.986 71.2229 114.222 71.9429 114.222 72.8149C114.222 73.6949 113.978 74.4229 113.49 74.9989C113.01 75.5749 112.358 75.8629 111.534 75.8629C111.11 75.8629 110.734 75.7749 110.406 75.5989C110.078 75.4229 109.83 75.1989 109.662 74.9269V77.9869ZM113.07 72.8149C113.07 72.2309 112.914 71.7509 112.602 71.3749C112.298 70.9909 111.886 70.7989 111.366 70.7989C110.854 70.7989 110.438 70.9909 110.118 71.3749C109.806 71.7509 109.65 72.2309 109.65 72.8149C109.65 73.4149 109.806 73.9069 110.118 74.2909C110.438 74.6669 110.854 74.8549 111.366 74.8549C111.878 74.8549 112.29 74.6669 112.602 74.2909C112.914 73.9069 113.07 73.4149 113.07 72.8149ZM116.787 75.7069H115.659V67.0189H116.787V75.7069ZM119.894 74.3389C120.246 74.6989 120.674 74.8789 121.178 74.8789C121.682 74.8789 122.106 74.6989 122.45 74.3389C122.802 73.9709 122.978 73.4629 122.978 72.8149C122.978 72.1749 122.802 71.6749 122.45 71.3149C122.106 70.9469 121.682 70.7629 121.178 70.7629C120.674 70.7629 120.246 70.9469 119.894 71.3149C119.55 71.6749 119.378 72.1749 119.378 72.8149C119.378 73.4629 119.55 73.9709 119.894 74.3389ZM119.054 70.6309C119.614 70.0469 120.322 69.7549 121.178 69.7549C122.034 69.7549 122.738 70.0469 123.29 70.6309C123.85 71.2069 124.13 71.9349 124.13 72.8149C124.13 73.7029 123.854 74.4389 123.302 75.0229C122.75 75.5989 122.042 75.8869 121.178 75.8869C120.314 75.8869 119.606 75.5989 119.054 75.0229C118.502 74.4389 118.226 73.7029 118.226 72.8149C118.226 71.9349 118.502 71.2069 119.054 70.6309ZM126.779 78.1189H125.543L126.983 75.0709L124.499 69.9349H125.795L127.595 73.9189L129.323 69.9349H130.535L126.779 78.1189ZM132.118 72.2269H135.274C135.258 71.7949 135.114 71.4429 134.842 71.1709C134.57 70.8909 134.186 70.7509 133.69 70.7509C133.242 70.7509 132.874 70.8989 132.586 71.1949C132.298 71.4829 132.142 71.8269 132.118 72.2269ZM135.442 73.7269L136.414 74.0629C136.246 74.5989 135.934 75.0389 135.478 75.3829C135.022 75.7189 134.47 75.8869 133.822 75.8869C133.014 75.8869 132.326 75.6109 131.758 75.0589C131.198 74.4989 130.918 73.7469 130.918 72.8029C130.918 71.9229 131.19 71.1949 131.734 70.6189C132.278 70.0429 132.926 69.7549 133.678 69.7549C134.55 69.7549 135.23 70.0309 135.718 70.5829C136.206 71.1269 136.45 71.8589 136.45 72.7789C136.45 72.9229 136.442 73.0429 136.426 73.1389H132.082C132.09 73.6509 132.258 74.0709 132.586 74.3989C132.922 74.7269 133.334 74.8909 133.822 74.8909C134.646 74.8909 135.186 74.5029 135.442 73.7269ZM138.622 72.2269H141.778C141.762 71.7949 141.618 71.4429 141.346 71.1709C141.074 70.8909 140.69 70.7509 140.194 70.7509C139.746 70.7509 139.378 70.8989 139.09 71.1949C138.802 71.4829 138.646 71.8269 138.622 72.2269ZM141.946 73.7269L142.918 74.0629C142.75 74.5989 142.438 75.0389 141.982 75.3829C141.526 75.7189 140.974 75.8869 140.326 75.8869C139.518 75.8869 138.83 75.6109 138.262 75.0589C137.702 74.4989 137.422 73.7469 137.422 72.8029C137.422 71.9229 137.694 71.1949 138.238 70.6189C138.782 70.0429 139.43 69.7549 140.182 69.7549C141.054 69.7549 141.734 70.0309 142.222 70.5829C142.71 71.1269 142.954 71.8589 142.954 72.7789C142.954 72.9229 142.946 73.0429 142.93 73.1389H138.586C138.594 73.6509 138.762 74.0709 139.09 74.3989C139.426 74.7269 139.838 74.8909 140.326 74.8909C141.15 74.8909 141.69 74.5029 141.946 73.7269Z" fill="#8D8E8D"/>
<rect x="156" y="20" width="78.3629" height="81.9595" fill="white"/>
<g clip-path="url(#clip1_2098_3256)">
<path d="M200.043 61.9995C195.488 61.9995 190.929 61.9995 186.375 61.9995C186.351 61.9878 186.328 61.976 186.304 61.9682C185.252 61.7647 184.606 61.0017 184.606 59.9451C184.606 54.6428 184.606 49.3366 184.606 44.0343C184.606 42.833 185.447 41.9995 186.648 41.9995C189.583 42.0034 192.518 42.0191 195.453 42.023C195.934 42.023 196.333 42.1913 196.678 42.5278C198.188 43.9991 199.703 45.4665 201.225 46.9261C201.589 47.2744 201.753 47.6735 201.753 48.1744C201.745 50.9019 201.749 53.6293 201.749 56.3568C201.749 57.562 201.753 58.7634 201.749 59.9686C201.745 60.8921 201.229 61.6395 200.415 61.9017C200.294 61.9369 200.168 61.9643 200.043 61.9995ZM195.034 43.5961C194.948 43.5922 194.886 43.5843 194.823 43.5843C192.143 43.5765 189.458 43.5648 186.778 43.5569C186.269 43.5569 186.167 43.6587 186.167 44.1556C186.167 49.3718 186.167 54.5841 186.167 59.8003C186.167 59.8669 186.167 59.9295 186.167 59.996C186.175 60.2386 186.335 60.4069 186.582 60.4264C186.641 60.4303 186.699 60.4264 186.758 60.4264C191.055 60.4264 195.351 60.4264 199.648 60.4264C200.078 60.4264 200.188 60.313 200.188 59.8825C200.188 56.1768 200.188 52.475 200.188 48.7692C200.188 48.6988 200.188 48.6323 200.188 48.5501C200.086 48.5501 200.016 48.5501 199.945 48.5501C198.987 48.5501 198.032 48.5501 197.073 48.5501C195.876 48.5462 195.034 47.7049 195.03 46.5113C195.026 45.6113 195.03 44.7152 195.03 43.8152C195.034 43.7526 195.034 43.6822 195.034 43.5961ZM196.596 44.6213C196.596 45.2865 196.596 45.897 196.596 46.5074C196.596 46.8401 196.748 46.9927 197.085 46.9927C197.684 46.9966 198.282 46.9927 198.881 46.9927C198.92 46.9927 198.959 46.9809 199.026 46.9692C198.216 46.1866 197.429 45.4274 196.596 44.6213Z" fill="#8D8E8D" stroke="#8D8E8D" stroke-width="0.308277"/>
<path d="M193.2 56.882C194.593 56.882 195.982 56.882 197.375 56.882C197.872 56.882 198.217 56.5377 198.201 56.072C198.189 55.7355 197.947 55.4302 197.618 55.352C197.524 55.3285 197.426 55.3207 197.328 55.3207C194.577 55.3207 191.826 55.3207 189.075 55.3207C188.622 55.3207 188.316 55.5476 188.226 55.9429C188.125 56.3772 188.445 56.8272 188.888 56.8742C188.978 56.882 189.068 56.882 189.162 56.882C190.508 56.882 191.854 56.882 193.2 56.882Z" fill="#8D8E8D" stroke="#8D8E8D" stroke-width="0.308277"/>
<path d="M192.19 53.7593C193.251 53.7593 194.311 53.7632 195.372 53.7554C195.959 53.7515 196.338 53.1919 196.107 52.6754C195.955 52.331 195.673 52.1941 195.309 52.1941C194.315 52.1941 193.317 52.1941 192.323 52.1941C191.236 52.1941 190.152 52.1941 189.064 52.1941C188.653 52.1941 188.355 52.3936 188.242 52.7302C188.074 53.2389 188.438 53.7476 188.989 53.7515C189.913 53.7593 190.836 53.7554 191.76 53.7554C191.905 53.7593 192.049 53.7593 192.19 53.7593Z" fill="#8D8E8D" stroke="#8D8E8D" stroke-width="0.308277"/>
<path d="M191.189 50.6327C191.924 50.6327 192.656 50.6367 193.392 50.6288C193.744 50.6249 194.022 50.3901 194.112 50.0497C194.198 49.7366 194.08 49.3884 193.795 49.2162C193.662 49.1379 193.493 49.0753 193.341 49.0753C191.897 49.0636 190.453 49.0675 189.013 49.0714C188.586 49.0714 188.269 49.3531 188.211 49.7523C188.156 50.1162 188.391 50.484 188.758 50.5936C188.86 50.6249 188.978 50.6288 189.087 50.6288C189.788 50.6367 190.488 50.6327 191.189 50.6327Z" fill="#8D8E8D" stroke="#8D8E8D" stroke-width="0.308277"/>
</g>
<path d="M178.756 71.3463H180.46C180.964 71.3463 181.364 71.2183 181.66 70.9623C181.956 70.6983 182.104 70.3463 182.104 69.9063C182.104 69.4583 181.956 69.1023 181.66 68.8383C181.364 68.5663 180.964 68.4303 180.46 68.4303H178.756V71.3463ZM180.676 72.4023H178.756V75.8823H177.58V67.3743H180.676C181.452 67.3743 182.084 67.6143 182.572 68.0943C183.06 68.5743 183.304 69.1743 183.304 69.8943C183.304 70.6223 183.06 71.2223 182.572 71.6943C182.084 72.1663 181.452 72.4023 180.676 72.4023ZM183.897 74.3343C183.897 73.8383 184.057 73.4423 184.377 73.1463C184.697 72.8423 185.121 72.6543 185.649 72.5823L187.209 72.3543C187.505 72.3143 187.653 72.1703 187.653 71.9223C187.653 71.6183 187.549 71.3703 187.341 71.1783C187.133 70.9863 186.821 70.8903 186.405 70.8903C186.021 70.8903 185.717 70.9983 185.493 71.2143C185.269 71.4223 185.137 71.7023 185.097 72.0543L184.017 71.8023C184.073 71.2503 184.325 70.8023 184.773 70.4583C185.221 70.1063 185.757 69.9303 186.381 69.9303C187.197 69.9303 187.801 70.1303 188.193 70.5303C188.585 70.9223 188.781 71.4263 188.781 72.0423V74.9343C188.781 75.2783 188.805 75.5943 188.853 75.8823H187.749C187.709 75.6423 187.689 75.3823 187.689 75.1023C187.529 75.3583 187.293 75.5823 186.981 75.7743C186.677 75.9663 186.293 76.0623 185.829 76.0623C185.261 76.0623 184.797 75.8943 184.437 75.5583C184.077 75.2143 183.897 74.8063 183.897 74.3343ZM185.985 75.1143C186.489 75.1143 186.893 74.9783 187.197 74.7063C187.501 74.4343 187.653 74.0023 187.653 73.4103V73.1463L185.889 73.4103C185.633 73.4503 185.429 73.5423 185.277 73.6863C185.125 73.8303 185.049 74.0263 185.049 74.2743C185.049 74.4983 185.133 74.6943 185.301 74.8623C185.477 75.0303 185.705 75.1143 185.985 75.1143ZM191.861 78.2943H190.625L192.065 75.2463L189.581 70.1103H190.877L192.677 74.0943L194.405 70.1103H195.617L191.861 78.2943ZM199.906 70.0503V71.2503C199.738 71.2263 199.574 71.2143 199.414 71.2143C198.358 71.2143 197.83 71.8063 197.83 72.9903V75.8823H196.702V70.1103H197.806V71.1183C198.158 70.3823 198.734 70.0143 199.534 70.0143C199.662 70.0143 199.786 70.0263 199.906 70.0503ZM202.238 74.5143C202.59 74.8743 203.018 75.0543 203.522 75.0543C204.026 75.0543 204.45 74.8743 204.794 74.5143C205.146 74.1463 205.322 73.6383 205.322 72.9903C205.322 72.3503 205.146 71.8503 204.794 71.4903C204.45 71.1223 204.026 70.9383 203.522 70.9383C203.018 70.9383 202.59 71.1223 202.238 71.4903C201.894 71.8503 201.722 72.3503 201.722 72.9903C201.722 73.6383 201.894 74.1463 202.238 74.5143ZM201.398 70.8063C201.958 70.2223 202.666 69.9303 203.522 69.9303C204.378 69.9303 205.082 70.2223 205.634 70.8063C206.194 71.3823 206.474 72.1103 206.474 72.9903C206.474 73.8783 206.198 74.6143 205.646 75.1983C205.094 75.7743 204.386 76.0623 203.522 76.0623C202.658 76.0623 201.95 75.7743 201.398 75.1983C200.846 74.6143 200.57 73.8783 200.57 72.9903C200.57 72.1103 200.846 71.3823 201.398 70.8063ZM209.045 75.8823H207.917V67.1943H209.045V75.8823ZM212.092 75.8823H210.964V67.1943H212.092V75.8823Z" fill="#8D8E8D"/>
<rect x="234" y="20" width="78.3629" height="81.9595" fill="white"/>
<g clip-path="url(#clip2_2098_3256)">
<path d="M273.392 42C273.831 42.0861 274.279 42.1421 274.709 42.2669C277.271 42.9902 279.187 45.2548 279.501 47.8982C279.906 51.3252 277.77 54.4595 274.464 55.2904C270.761 56.2204 266.964 53.7577 266.301 49.9949C265.724 46.7401 267.425 43.6489 270.477 42.4607C271.024 42.2497 271.622 42.1765 272.199 42.0387C272.255 42.0258 272.311 42.0129 272.363 42C272.703 42 273.047 42 273.392 42ZM278.265 48.7378C278.257 45.7155 275.833 43.2787 272.845 43.2916C269.874 43.3002 267.459 45.7628 267.468 48.7636C267.476 51.7644 269.913 54.2098 272.884 54.2012C275.85 54.1926 278.274 51.7342 278.265 48.7378Z" fill="#8D8E8D" stroke="#8D8E8D" stroke-width="0.4"/>
<path d="M263.843 57.671C263.886 57.4945 263.911 57.3395 263.963 57.1932C264.26 56.3536 264.893 55.9403 265.737 55.7509C267.175 55.428 268.544 55.5744 269.866 56.2503C270.339 56.4914 270.839 56.7024 271.347 56.8746C271.652 56.9779 271.988 57.0166 272.315 57.0296C272.965 57.0511 273.62 57.0339 274.27 57.0382C274.744 57.0382 274.998 57.3008 274.985 57.7744C274.967 58.4159 274.765 58.9928 274.378 59.5568C274.696 59.5568 274.985 59.5654 275.269 59.5525C275.325 59.5481 275.381 59.4706 275.432 59.419C276.035 58.8162 276.634 58.2092 277.241 57.6151C278.416 56.4656 280.263 56.4311 281.486 57.529C281.873 57.8777 281.886 58.2523 281.52 58.6182C280.013 60.1294 278.502 61.6362 276.995 63.1431C276.414 63.7243 275.712 64.0084 274.894 64.0084C270.563 64.0084 266.232 64.0084 261.901 64.0084C261.389 63.9998 261.143 63.7544 261.143 63.2464C261.143 61.6362 261.143 60.026 261.143 58.4116C261.143 57.9078 261.384 57.671 261.897 57.671C262.538 57.6667 263.184 57.671 263.843 57.671ZM265.143 62.7125C265.246 62.7125 265.324 62.7125 265.401 62.7125C268.535 62.7125 271.674 62.7082 274.808 62.7168C275.333 62.7168 275.764 62.5446 276.134 62.1701C277.417 60.8785 278.704 59.5955 279.992 58.3082C280.035 58.2652 280.069 58.2178 280.121 58.1618C280.069 58.1403 280.039 58.1188 280.005 58.1102C279.277 57.882 278.636 58.0327 278.089 58.5708C277.439 59.2166 276.784 59.8581 276.147 60.5168C275.919 60.7493 275.674 60.8526 275.351 60.8483C273.34 60.8397 271.325 60.8397 269.315 60.8397C269.048 60.8397 268.785 60.844 268.518 60.8311C268.268 60.8182 268.088 60.6804 267.984 60.4566C267.885 60.237 267.907 60.0217 268.049 59.8237C268.2 59.6084 268.419 59.5438 268.669 59.5438C269.62 59.5481 270.572 59.5481 271.528 59.5481C271.713 59.5481 271.902 59.5481 272.083 59.5309C272.742 59.4577 273.392 58.9239 273.555 58.3168C273.164 58.3168 272.78 58.3125 272.397 58.3168C271.79 58.3254 271.196 58.2307 270.636 57.9982C270.12 57.7873 269.607 57.5677 269.108 57.318C268.036 56.7885 266.938 56.754 265.806 57.064C265.341 57.1888 265.143 57.4558 265.143 57.9337C265.143 59.0703 265.143 60.2112 265.143 61.3478C265.143 61.7955 265.143 62.2389 265.143 62.7125ZM263.843 62.6996C263.843 61.4468 263.843 60.2112 263.843 58.9712C263.369 58.9712 262.913 58.9712 262.443 58.9712C262.443 60.2198 262.443 61.4554 262.443 62.6996C262.913 62.6996 263.369 62.6996 263.843 62.6996Z" fill="#8D8E8D" stroke="#8D8E8D" stroke-width="0.4"/>
<g clip-path="url(#clip3_2098_3256)">
<path d="M273.927 46.8147C273.927 46.6486 273.931 46.482 273.927 46.3159C273.924 46.2279 273.957 46.2042 274.041 46.2054C274.277 46.2098 274.514 46.2114 274.751 46.2054C274.852 46.2025 274.88 46.2364 274.879 46.3344C274.873 46.6465 274.881 46.9591 274.875 47.2716C274.872 47.3862 274.899 47.4329 275.024 47.4281C275.296 47.4217 275.296 47.4281 275.296 47.708C275.296 47.8741 275.292 48.0407 275.296 48.2068C275.298 48.2875 275.277 48.3198 275.188 48.3214C274.876 48.3278 274.876 48.3319 274.876 48.6517C274.876 48.8077 274.88 48.9642 274.876 49.1203C274.873 49.2058 274.902 49.2316 274.987 49.2344C275.296 49.2433 275.296 49.2465 275.296 49.5526C275.296 49.7086 275.292 49.8651 275.296 50.0212C275.299 50.1059 275.271 50.1321 275.184 50.1337C274.875 50.1402 274.876 50.1438 274.876 50.4519C274.876 50.6886 274.872 50.9257 274.876 51.1621C274.876 51.2556 274.845 51.283 274.755 51.281C274.493 51.2758 274.231 51.2754 273.969 51.281C273.932 51.2846 273.895 51.2768 273.863 51.2587C273.83 51.2406 273.804 51.2131 273.788 51.1798C273.601 50.8693 273.406 50.5636 273.22 50.2523C273.169 50.1652 273.113 50.126 273.007 50.1281C272.649 50.1357 272.292 50.1341 271.934 50.1281C271.835 50.1281 271.806 50.1567 271.808 50.2551C271.814 50.5523 271.805 50.8495 271.812 51.1467C271.814 51.2548 271.779 51.2839 271.675 51.2802C271.448 51.273 271.221 51.2714 270.995 51.2802C270.876 51.2855 270.851 51.2399 270.853 51.133C270.86 50.8459 270.851 50.5588 270.858 50.2716C270.861 50.1611 270.833 50.1236 270.716 50.1264C270.448 50.1329 270.448 50.1264 270.448 49.8615C270.448 49.6853 270.451 49.5086 270.448 49.3324C270.448 49.2517 270.476 49.2312 270.553 49.2283C270.857 49.2162 270.857 49.2134 270.857 48.9057C270.857 48.7496 270.853 48.5932 270.857 48.4371C270.86 48.3468 270.832 48.3161 270.739 48.3161C270.448 48.3133 270.448 48.3093 270.448 48.0129C270.448 47.8568 270.453 47.7003 270.448 47.5442C270.444 47.4523 270.473 47.4233 270.566 47.4233C270.858 47.4188 270.858 47.4144 270.858 47.1152C270.858 46.853 270.861 46.5909 270.858 46.3292C270.858 46.2408 270.88 46.2033 270.976 46.2058C271.233 46.2118 271.49 46.211 271.747 46.2058C271.782 46.203 271.816 46.2109 271.846 46.2283C271.876 46.2457 271.9 46.2719 271.915 46.3034C272.117 46.6397 272.327 46.972 272.529 47.3091C272.578 47.3898 272.63 47.4301 272.73 47.4301C273.088 47.4237 273.446 47.4245 273.803 47.4301C273.902 47.4301 273.936 47.4015 273.932 47.3015C273.924 47.1402 273.932 46.9789 273.932 46.8175L273.927 46.8147ZM273.147 48.3189C273.334 48.625 273.506 48.9069 273.68 49.1876C273.728 49.2646 273.809 49.2304 273.874 49.2279C273.955 49.2247 273.925 49.1537 273.926 49.1098C273.928 48.8831 273.926 48.6565 273.926 48.4298C273.926 48.375 273.936 48.3169 273.848 48.3181C273.625 48.321 273.4 48.3189 273.147 48.3189ZM272.585 49.2312L272.051 48.3657C272.003 48.2871 271.924 48.3194 271.859 48.3222C271.779 48.3262 271.812 48.3976 271.811 48.4403C271.808 48.6666 271.811 48.8928 271.811 49.1191C271.811 49.1723 271.797 49.2332 271.887 49.232C272.109 49.2296 272.333 49.2312 272.585 49.2312Z" fill="#8D8E8D"/>
</g>
</g>
<path d="M262.776 75.8823H257.58V67.3743H258.756V74.7783H262.776V75.8823ZM265.164 74.5143C265.516 74.8743 265.944 75.0543 266.448 75.0543C266.952 75.0543 267.376 74.8743 267.72 74.5143C268.072 74.1463 268.248 73.6383 268.248 72.9903C268.248 72.3503 268.072 71.8503 267.72 71.4903C267.376 71.1223 266.952 70.9383 266.448 70.9383C265.944 70.9383 265.516 71.1223 265.164 71.4903C264.82 71.8503 264.648 72.3503 264.648 72.9903C264.648 73.6383 264.82 74.1463 265.164 74.5143ZM264.324 70.8063C264.884 70.2223 265.592 69.9303 266.448 69.9303C267.304 69.9303 268.008 70.2223 268.56 70.8063C269.12 71.3823 269.4 72.1103 269.4 72.9903C269.4 73.8783 269.124 74.6143 268.572 75.1983C268.02 75.7743 267.312 76.0623 266.448 76.0623C265.584 76.0623 264.876 75.7743 264.324 75.1983C263.772 74.6143 263.496 73.8783 263.496 72.9903C263.496 72.1103 263.772 71.3823 264.324 70.8063ZM270.483 74.3343C270.483 73.8383 270.643 73.4423 270.963 73.1463C271.283 72.8423 271.707 72.6543 272.235 72.5823L273.795 72.3543C274.091 72.3143 274.239 72.1703 274.239 71.9223C274.239 71.6183 274.135 71.3703 273.927 71.1783C273.719 70.9863 273.407 70.8903 272.991 70.8903C272.607 70.8903 272.303 70.9983 272.079 71.2143C271.855 71.4223 271.723 71.7023 271.683 72.0543L270.603 71.8023C270.659 71.2503 270.911 70.8023 271.359 70.4583C271.807 70.1063 272.343 69.9303 272.967 69.9303C273.783 69.9303 274.387 70.1303 274.779 70.5303C275.171 70.9223 275.367 71.4263 275.367 72.0423V74.9343C275.367 75.2783 275.391 75.5943 275.439 75.8823H274.335C274.295 75.6423 274.275 75.3823 274.275 75.1023C274.115 75.3583 273.879 75.5823 273.567 75.7743C273.263 75.9663 272.879 76.0623 272.415 76.0623C271.847 76.0623 271.383 75.8943 271.023 75.5583C270.663 75.2143 270.483 74.8063 270.483 74.3343ZM272.571 75.1143C273.075 75.1143 273.479 74.9783 273.783 74.7063C274.087 74.4343 274.239 74.0023 274.239 73.4103V73.1463L272.475 73.4103C272.219 73.4503 272.015 73.5423 271.863 73.6863C271.711 73.8303 271.635 74.0263 271.635 74.2743C271.635 74.4983 271.719 74.6943 271.887 74.8623C272.063 75.0303 272.291 75.1143 272.571 75.1143ZM278.252 72.5463V75.8823H277.124V70.1103H278.228V70.9383C278.612 70.2743 279.204 69.9423 280.004 69.9423C280.668 69.9423 281.176 70.1543 281.528 70.5783C281.888 71.0023 282.068 71.5503 282.068 72.2223V75.8823H280.94V72.4143C280.94 71.4463 280.492 70.9623 279.596 70.9623C279.172 70.9623 278.84 71.1143 278.6 71.4183C278.368 71.7143 278.252 72.0903 278.252 72.5463ZM283.322 74.3823L284.342 74.0223C284.382 74.3343 284.518 74.5943 284.75 74.8023C284.982 75.0023 285.294 75.1023 285.686 75.1023C285.99 75.1023 286.23 75.0303 286.406 74.8863C286.582 74.7343 286.67 74.5503 286.67 74.3343C286.67 73.9503 286.422 73.7023 285.926 73.5903L284.942 73.3743C284.494 73.2783 284.142 73.0863 283.886 72.7983C283.63 72.5103 283.502 72.1623 283.502 71.7543C283.502 71.2583 283.702 70.8303 284.102 70.4703C284.51 70.1103 284.994 69.9303 285.554 69.9303C285.922 69.9303 286.25 69.9863 286.538 70.0983C286.826 70.2023 287.05 70.3423 287.21 70.5183C287.37 70.6943 287.49 70.8583 287.57 71.0103C287.65 71.1623 287.71 71.3183 287.75 71.4783L286.754 71.8503C286.738 71.7543 286.71 71.6623 286.67 71.5743C286.63 71.4783 286.566 71.3743 286.478 71.2623C286.398 71.1503 286.278 71.0623 286.118 70.9983C285.958 70.9263 285.77 70.8903 285.554 70.8903C285.274 70.8903 285.042 70.9663 284.858 71.1183C284.682 71.2703 284.594 71.4503 284.594 71.6583C284.594 72.0263 284.814 72.2583 285.254 72.3543L286.19 72.5583C286.702 72.6703 287.094 72.8783 287.366 73.1823C287.646 73.4783 287.786 73.8423 287.786 74.2743C287.786 74.7303 287.598 75.1423 287.222 75.5103C286.854 75.8783 286.338 76.0623 285.674 76.0623C284.962 76.0623 284.406 75.8863 284.006 75.5343C283.606 75.1743 283.378 74.7903 283.322 74.3823Z" fill="#8D8E8D"/>
<rect x="312" y="20" width="78.3629" height="81.9595" fill="white"/>
<path d="M346.495 41.9087C346.659 41.9616 346.828 42.004 346.992 42.0675C347.972 42.4222 348.649 43.3381 348.655 44.3811C348.665 46.1124 348.671 47.8489 348.655 49.5801C348.639 50.9249 347.538 52.0314 346.193 52.042C344.462 52.0578 342.725 52.0578 340.994 52.042C339.649 52.0261 338.543 50.9249 338.527 49.5801C338.511 47.8489 338.511 46.1124 338.527 44.3811C338.537 43.227 339.347 42.2528 340.491 41.9722C340.554 41.9563 340.618 41.9299 340.687 41.9087C342.619 41.9087 344.557 41.9087 346.495 41.9087ZM343.588 43.5976C342.767 43.5976 341.952 43.5976 341.131 43.5976C340.554 43.5976 340.21 43.9364 340.205 44.5135C340.205 46.16 340.205 47.8065 340.205 49.453C340.205 50.0089 340.554 50.3584 341.116 50.3584C342.762 50.3584 344.409 50.3584 346.055 50.3584C346.616 50.3584 346.966 50.0142 346.966 49.453C346.971 47.8065 346.966 46.16 346.966 44.5135C346.966 43.9417 346.616 43.5976 346.045 43.5976C345.224 43.5976 344.409 43.5976 343.588 43.5976Z" fill="#8D8E8D"/>
<path d="M360.488 49.887C360.445 50.0299 360.408 50.1676 360.361 50.3105C360.027 51.327 359.085 52.0418 358.015 52.0471C356.284 52.0629 354.547 52.0629 352.816 52.0471C351.471 52.0312 350.365 50.9247 350.354 49.5852C350.338 47.854 350.338 46.1175 350.354 44.3862C350.365 43.2321 351.175 42.2579 352.318 41.9773C352.382 41.9615 352.446 41.935 352.514 41.9138C354.452 41.9138 356.39 41.9138 358.322 41.9138C358.37 41.9297 358.418 41.9562 358.465 41.9667C359.402 42.1891 360.032 42.7556 360.361 43.6609C360.408 43.7986 360.445 43.9415 360.488 44.0845C360.488 46.0116 360.488 47.9493 360.488 49.887ZM355.421 50.3582C356.247 50.3582 357.078 50.3635 357.904 50.3582C358.449 50.3582 358.799 50.0088 358.799 49.4687C358.804 47.8116 358.804 46.1598 358.799 44.5027C358.799 43.9468 358.444 43.5974 357.888 43.5974C356.242 43.5974 354.595 43.5974 352.949 43.5974C352.387 43.5974 352.038 43.9415 352.038 44.5027C352.038 46.1492 352.038 47.7958 352.038 49.4423C352.038 50.0141 352.387 50.3582 352.964 50.3582C353.785 50.3635 354.6 50.3582 355.421 50.3582Z" fill="#8D8E8D"/>
<path d="M360.488 59.3372C360.435 59.5649 360.392 59.7978 360.334 60.0255C359.773 62.3338 357.666 63.9327 355.262 63.8744C352.927 63.8215 350.9 62.1009 350.45 59.8031C349.809 56.5472 352.366 53.5876 355.68 53.7412C358.089 53.8524 360.138 55.7424 360.435 58.1248C360.445 58.1937 360.466 58.2625 360.482 58.326C360.488 58.6702 360.488 59.0037 360.488 59.3372ZM358.799 58.8025C358.799 56.9601 357.285 55.4353 355.447 55.4301C353.568 55.4248 352.043 56.9336 352.043 58.8025C352.043 60.6767 353.557 62.1909 355.437 62.1909C357.29 62.1909 358.799 60.6714 358.799 58.8025Z" fill="#8D8E8D"/>
<path d="M343.562 63.8795C342.752 63.8795 341.942 63.8795 341.132 63.8795C339.618 63.8742 338.522 62.7783 338.516 61.2641C338.511 59.6282 338.511 57.9923 338.516 56.3563C338.522 54.8422 339.618 53.7463 341.132 53.741C342.768 53.7357 344.404 53.7357 346.039 53.741C347.554 53.7463 348.65 54.8369 348.655 56.3563C348.66 57.9923 348.66 59.6282 348.655 61.2641C348.65 62.7836 347.559 63.8742 346.039 63.8795C345.219 63.8848 344.388 63.8795 343.562 63.8795ZM343.599 55.4298C342.778 55.4298 341.963 55.4298 341.142 55.4298C340.549 55.4298 340.21 55.7687 340.21 56.3669C340.21 57.9976 340.21 59.6229 340.21 61.2535C340.21 61.8465 340.549 62.1906 341.142 62.1906C342.773 62.1906 344.398 62.1906 346.029 62.1906C346.638 62.1906 346.971 61.8518 346.977 61.243C346.977 59.6229 346.977 58.0029 346.977 56.3828C346.977 55.7687 346.643 55.4298 346.034 55.4298C345.214 55.4298 344.404 55.4298 343.599 55.4298Z" fill="#8D8E8D"/>
<path d="M344.772 76H343.608V69.376L340.704 76H339.624L336.744 69.376V76H335.58V67.492H337.176L340.176 74.416L343.2 67.492H344.772V76ZM348.003 74.632C348.355 74.992 348.783 75.172 349.287 75.172C349.791 75.172 350.215 74.992 350.559 74.632C350.911 74.264 351.087 73.756 351.087 73.108C351.087 72.468 350.911 71.968 350.559 71.608C350.215 71.24 349.791 71.056 349.287 71.056C348.783 71.056 348.355 71.24 348.003 71.608C347.659 71.968 347.487 72.468 347.487 73.108C347.487 73.756 347.659 74.264 348.003 74.632ZM347.163 70.924C347.723 70.34 348.431 70.048 349.287 70.048C350.143 70.048 350.847 70.34 351.399 70.924C351.959 71.5 352.239 72.228 352.239 73.108C352.239 73.996 351.963 74.732 351.411 75.316C350.859 75.892 350.151 76.18 349.287 76.18C348.423 76.18 347.715 75.892 347.163 75.316C346.611 74.732 346.335 73.996 346.335 73.108C346.335 72.228 346.611 71.5 347.163 70.924ZM356.887 70.168V71.368C356.719 71.344 356.555 71.332 356.395 71.332C355.339 71.332 354.811 71.924 354.811 73.108V76H353.683V70.228H354.787V71.236C355.139 70.5 355.715 70.132 356.515 70.132C356.643 70.132 356.767 70.144 356.887 70.168ZM358.762 72.52H361.918C361.902 72.088 361.758 71.736 361.486 71.464C361.214 71.184 360.83 71.044 360.334 71.044C359.886 71.044 359.518 71.192 359.23 71.488C358.942 71.776 358.786 72.12 358.762 72.52ZM362.086 74.02L363.058 74.356C362.89 74.892 362.578 75.332 362.122 75.676C361.666 76.012 361.114 76.18 360.466 76.18C359.658 76.18 358.97 75.904 358.402 75.352C357.842 74.792 357.562 74.04 357.562 73.096C357.562 72.216 357.834 71.488 358.378 70.912C358.922 70.336 359.57 70.048 360.322 70.048C361.194 70.048 361.874 70.324 362.362 70.876C362.85 71.42 363.094 72.152 363.094 73.072C363.094 73.216 363.086 73.336 363.07 73.432H358.726C358.734 73.944 358.902 74.364 359.23 74.692C359.566 75.02 359.978 75.184 360.466 75.184C361.29 75.184 361.83 74.796 362.086 74.02Z" fill="#8D8E8D"/>
</g>
<rect width="390" height="35.36" transform="translate(0 102)" fill="white"/>
<defs>
<filter id="filter0_d_2098_3256" x="-12" y="0" width="414" height="106" filterUnits="userSpaceOnUse" color-interpolation-filters="sRGB">
<feFlood flood-opacity="0" result="BackgroundImageFix"/>
<feColorMatrix in="SourceAlpha" type="matrix" values="0 0 0 0 0 0 0 0 0 0 0 0 0 0 0 0 0 0 127 0" result="hardAlpha"/>
<feOffset dy="-8"/>
<feGaussianBlur stdDeviation="6"/>
<feColorMatrix type="matrix" values="0 0 0 0 0.396078 0 0 0 0 0.423529 0 0 0 0 0.490196 0 0 0 0.08 0"/>
<feBlend mode="multiply" in2="BackgroundImageFix" result="effect1_dropShadow_2098_3256"/>
<feBlend mode="normal" in="SourceGraphic" in2="effect1_dropShadow_2098_3256" result="shape"/>
</filter>
<clipPath id="clip0_2098_3256">
<rect width="390" height="82" fill="white" transform="translate(0 20)"/>
</clipPath>
<clipPath id="clip1_2098_3256">
<rect width="17.1512" height="20" fill="white" transform="translate(184.606 41.9995)"/>
</clipPath>
<clipPath id="clip2_2098_3256">
<rect width="20.6352" height="22" fill="white" transform="translate(261.143 42)"/>
</clipPath>
<clipPath id="clip3_2098_3256">
<rect width="4.84984" height="5.07769" fill="white" transform="translate(270.445 46.2047)"/>
</clipPath>
</defs>
</svg>
