<svg width="358" height="112" viewBox="0 0 358 112" fill="none" xmlns="http://www.w3.org/2000/svg">
<path d="M10.542 12.586H9.688C9.408 12.586 9.184 12.502 9.016 12.32C9.338 11.886 9.59 11.396 9.772 10.85C9.94 10.304 10.038 9.716 10.038 9.1C10.038 8.148 9.828 7.294 9.436 6.538C9.03 5.782 8.47 5.194 7.742 4.76C7.014 4.34 6.202 4.116 5.278 4.116C4.354 4.116 3.528 4.34 2.8 4.76C2.072 5.194 1.512 5.782 1.12 6.538C0.714 7.294 0.518 8.148 0.518 9.1C0.518 10.052 0.714 10.906 1.12 11.662C1.512 12.418 2.072 13.02 2.8 13.44C3.528 13.874 4.354 14.084 5.278 14.084C6.328 14.084 7.252 13.818 8.036 13.258L8.078 13.314C8.26 13.566 8.456 13.734 8.68 13.846C8.904 13.958 9.198 14 9.59 14H10.542V12.586ZM7.112 12.068C6.58 12.474 5.978 12.67 5.278 12.67C4.662 12.67 4.13 12.53 3.654 12.222C3.178 11.914 2.814 11.494 2.562 10.948C2.296 10.402 2.17 9.786 2.17 9.1C2.17 8.428 2.296 7.812 2.562 7.266C2.814 6.72 3.178 6.3 3.654 5.992C4.13 5.684 4.662 5.53 5.278 5.53C5.88 5.53 6.412 5.684 6.888 5.992C7.364 6.3 7.728 6.72 7.994 7.266C8.246 7.812 8.386 8.428 8.386 9.1C8.386 9.814 8.246 10.444 7.98 10.976L7.686 10.598C7.504 10.36 7.308 10.192 7.112 10.08C6.916 9.968 6.636 9.912 6.3 9.912H5.25V11.312H6.118C6.272 11.312 6.412 11.354 6.538 11.424C6.65 11.508 6.776 11.62 6.902 11.788L7.112 12.068ZM14.193 4.2H12.583V9.8C12.583 11.2 12.905 12.264 13.563 12.992C14.207 13.72 15.173 14.084 16.433 14.084C17.693 14.084 18.659 13.72 19.317 12.992C19.975 12.264 20.311 11.2 20.311 9.8V4.2H18.701V9.884C18.701 10.808 18.505 11.508 18.141 11.97C17.777 12.432 17.203 12.656 16.433 12.656C15.663 12.656 15.103 12.432 14.739 11.97C14.375 11.508 14.193 10.808 14.193 9.884V4.2ZM23.1653 4.2V14H24.7753V4.2H23.1653ZM27.8856 6.496C27.4936 7.252 27.3116 8.12 27.3116 9.1C27.3116 10.108 27.4936 10.976 27.8856 11.732C28.2776 12.488 28.8236 13.062 29.5376 13.468C30.2516 13.888 31.0916 14.084 32.0436 14.084C32.7856 14.084 33.4576 13.944 34.0456 13.664C34.6336 13.384 35.1096 12.992 35.4736 12.474C35.8376 11.97 36.0756 11.368 36.1876 10.668H34.5776C34.4096 11.298 34.1016 11.788 33.6536 12.138C33.2056 12.502 32.6456 12.67 31.9736 12.67C31.3576 12.67 30.8256 12.53 30.3776 12.222C29.9156 11.914 29.5656 11.494 29.3276 10.948C29.0756 10.416 28.9636 9.8 28.9636 9.1C28.9636 8.4 29.0756 7.784 29.3276 7.252C29.5656 6.72 29.9156 6.3 30.3776 5.992C30.8256 5.684 31.3576 5.53 31.9736 5.53C32.6456 5.53 33.2056 5.712 33.6676 6.062C34.1156 6.426 34.4236 6.916 34.5916 7.532H36.2016C36.0896 6.86 35.8516 6.258 35.4876 5.74C35.1096 5.222 34.6196 4.816 34.0316 4.536C33.4436 4.256 32.7716 4.116 32.0436 4.116C31.0916 4.116 30.2516 4.326 29.5376 4.746C28.8236 5.166 28.2776 5.74 27.8856 6.496ZM38.6944 4.2V14H40.3044V11.438L42.0124 9.52L45.0784 14H47.0244L43.1604 8.288L46.7584 4.2H44.7984L40.3044 9.254V4.2H38.6944ZM54.9492 10.808L53.3672 10.78C53.3672 11.424 53.5352 11.998 53.8712 12.502C54.2072 13.006 54.6692 13.384 55.2572 13.664C55.8452 13.944 56.5172 14.084 57.3012 14.084C58.0012 14.084 58.6172 13.958 59.1772 13.706C59.7232 13.454 60.1572 13.09 60.4652 12.628C60.7732 12.18 60.9272 11.662 60.9272 11.074C60.9272 10.486 60.7732 9.996 60.4932 9.632C60.1992 9.268 59.8212 9.002 59.3732 8.806C58.9112 8.624 58.3652 8.47 57.7352 8.358C57.1052 8.246 56.6292 8.148 56.2932 8.05C55.9572 7.966 55.6772 7.826 55.4812 7.63C55.2852 7.448 55.1872 7.196 55.1872 6.874C55.1872 6.426 55.3552 6.09 55.6912 5.838C56.0272 5.586 56.4892 5.46 57.0632 5.46C57.6512 5.46 58.1272 5.614 58.5192 5.922C58.8972 6.23 59.1212 6.636 59.1772 7.14H60.7592C60.7312 6.552 60.5492 6.034 60.2412 5.572C59.9192 5.124 59.4852 4.76 58.9392 4.494C58.3792 4.242 57.7632 4.102 57.0632 4.102C56.3772 4.102 55.7752 4.228 55.2432 4.466C54.7112 4.718 54.3052 5.054 54.0112 5.488C53.7172 5.936 53.5772 6.426 53.5772 6.986C53.5772 7.602 53.7172 8.092 53.9972 8.456C54.2772 8.834 54.6552 9.114 55.1032 9.296C55.5512 9.478 56.0972 9.618 56.7412 9.73C57.3572 9.842 57.8472 9.954 58.1972 10.052C58.5332 10.164 58.8132 10.304 59.0092 10.5C59.2052 10.696 59.3172 10.948 59.3172 11.27C59.3172 11.732 59.1212 12.096 58.7572 12.348C58.3932 12.6 57.9032 12.726 57.3152 12.726C56.6292 12.726 56.0692 12.558 55.6492 12.208C55.2292 11.858 54.9912 11.396 54.9492 10.808ZM62.4397 4.2V5.628H65.4637V14H67.0737V5.628H70.0977V4.2H62.4397ZM70.2536 14H71.9196L72.8296 11.578H76.8476L77.7716 14H79.4936L75.8396 4.2H73.9216L70.2536 14ZM73.2776 10.206L74.8316 5.936L76.3996 10.206H73.2776ZM79.664 4.2V5.628H82.688V14H84.298V5.628H87.322V4.2H79.664ZM90.3824 10.808L88.8004 10.78C88.8004 11.424 88.9684 11.998 89.3044 12.502C89.6404 13.006 90.1024 13.384 90.6904 13.664C91.2784 13.944 91.9504 14.084 92.7344 14.084C93.4344 14.084 94.0504 13.958 94.6104 13.706C95.1564 13.454 95.5904 13.09 95.8984 12.628C96.2064 12.18 96.3604 11.662 96.3604 11.074C96.3604 10.486 96.2064 9.996 95.9264 9.632C95.6324 9.268 95.2544 9.002 94.8064 8.806C94.3444 8.624 93.7984 8.47 93.1684 8.358C92.5384 8.246 92.0624 8.148 91.7264 8.05C91.3904 7.966 91.1104 7.826 90.9144 7.63C90.7184 7.448 90.6204 7.196 90.6204 6.874C90.6204 6.426 90.7884 6.09 91.1244 5.838C91.4604 5.586 91.9224 5.46 92.4964 5.46C93.0844 5.46 93.5604 5.614 93.9524 5.922C94.3304 6.23 94.5544 6.636 94.6104 7.14H96.1924C96.1644 6.552 95.9824 6.034 95.6744 5.572C95.3524 5.124 94.9184 4.76 94.3724 4.494C93.8124 4.242 93.1964 4.102 92.4964 4.102C91.8104 4.102 91.2084 4.228 90.6764 4.466C90.1444 4.718 89.7384 5.054 89.4444 5.488C89.1504 5.936 89.0104 6.426 89.0104 6.986C89.0104 7.602 89.1504 8.092 89.4304 8.456C89.7104 8.834 90.0884 9.114 90.5364 9.296C90.9844 9.478 91.5304 9.618 92.1744 9.73C92.7904 9.842 93.2804 9.954 93.6304 10.052C93.9664 10.164 94.2464 10.304 94.4424 10.5C94.6384 10.696 94.7504 10.948 94.7504 11.27C94.7504 11.732 94.5544 12.096 94.1904 12.348C93.8264 12.6 93.3364 12.726 92.7484 12.726C92.0624 12.726 91.5024 12.558 91.0824 12.208C90.6624 11.858 90.4244 11.396 90.3824 10.808Z" fill="#515251"/>
<rect y="32" width="171" height="80" rx="16" fill="#F2F1F1"/>
<path d="M16.35 54.2V55.32H19.528V64H20.746V55.32H23.924V54.2H16.35ZM25.4897 63.622C26.0217 63.93 26.6377 64.084 27.3377 64.084C28.0237 64.084 28.6397 63.93 29.1717 63.622C29.7037 63.314 30.1237 62.894 30.4317 62.334C30.7257 61.788 30.8797 61.158 30.8797 60.43C30.8797 59.716 30.7257 59.086 30.4317 58.526C30.1237 57.98 29.7037 57.546 29.1717 57.238C28.6397 56.93 28.0237 56.776 27.3377 56.776C26.6377 56.776 26.0217 56.93 25.4897 57.238C24.9577 57.546 24.5377 57.98 24.2437 58.526C23.9357 59.086 23.7957 59.716 23.7957 60.43C23.7957 61.158 23.9357 61.788 24.2437 62.334C24.5377 62.894 24.9577 63.314 25.4897 63.622ZM28.5697 62.726C28.2057 62.95 27.7997 63.062 27.3377 63.062C26.8617 63.062 26.4557 62.95 26.0917 62.726C25.7277 62.502 25.4617 62.194 25.2657 61.788C25.0697 61.396 24.9717 60.934 24.9717 60.43C24.9717 59.926 25.0697 59.478 25.2657 59.072C25.4617 58.68 25.7277 58.358 26.0917 58.134C26.4557 57.91 26.8617 57.798 27.3377 57.798C27.7997 57.798 28.2057 57.91 28.5697 58.134C28.9337 58.358 29.2137 58.68 29.4097 59.072C29.6057 59.478 29.7037 59.926 29.7037 60.43C29.7037 60.934 29.6057 61.396 29.4097 61.788C29.2137 62.194 28.9337 62.502 28.5697 62.726ZM32.8401 57.91V62.138C32.8401 62.782 32.9801 63.258 33.2601 63.552C33.5401 63.86 34.0301 64 34.7021 64H36.0181V62.95H34.7721C34.4781 62.95 34.2681 62.894 34.1561 62.768C34.0441 62.642 33.9881 62.432 33.9881 62.124V57.91H35.7941V56.86H33.9881V54.858H32.8401V56.86H31.5521V57.91H32.8401ZM43.6534 62.95H43.3034C42.9814 62.95 42.8274 62.782 42.8274 62.432V59.352C42.8274 58.526 42.5754 57.896 42.0714 57.448C41.5674 57 40.8674 56.776 39.9574 56.776C39.0894 56.776 38.3894 56.972 37.8574 57.364C37.3254 57.756 37.0174 58.302 36.9334 59.002H38.0814C38.1514 58.638 38.3474 58.358 38.6694 58.134C38.9914 57.91 39.3974 57.798 39.9014 57.798C40.4614 57.798 40.8954 57.938 41.2034 58.19C41.5114 58.456 41.6794 58.82 41.6794 59.282V59.772H39.5794C38.6414 59.772 37.9274 59.968 37.4374 60.346C36.9474 60.738 36.7094 61.284 36.7094 61.998C36.7094 62.642 36.9474 63.16 37.4234 63.524C37.8994 63.902 38.5434 64.084 39.3414 64.084C40.3774 64.084 41.1754 63.692 41.7354 62.894C41.7354 63.258 41.8474 63.538 42.0434 63.72C42.2394 63.916 42.5614 64 43.0234 64H43.6534V62.95ZM41.6794 60.738V61.088C41.6794 61.704 41.4694 62.194 41.0774 62.558C40.6714 62.922 40.1254 63.104 39.4254 63.104C38.9494 63.104 38.5714 63.006 38.2914 62.782C38.0114 62.572 37.8714 62.292 37.8714 61.928C37.8714 61.144 38.4034 60.738 39.4674 60.738H41.6794ZM44.786 54.2V64H45.934V54.2H44.786ZM55.6047 54.2H51.8387V64H53.0567V60.234H55.6047C56.2487 60.234 56.8087 60.122 57.2987 59.87C57.7887 59.618 58.1667 59.268 58.4467 58.806C58.7127 58.358 58.8527 57.826 58.8527 57.21C58.8527 56.608 58.7127 56.076 58.4467 55.628C58.1807 55.18 57.8027 54.83 57.3127 54.578C56.8087 54.326 56.2487 54.2 55.6047 54.2ZM53.0567 59.114V55.32H55.5067C56.1507 55.32 56.6547 55.502 57.0327 55.838C57.4107 56.174 57.6067 56.636 57.6067 57.21C57.6067 57.798 57.4107 58.26 57.0327 58.596C56.6407 58.946 56.1367 59.114 55.4927 59.114H53.0567ZM66.4874 62.95H66.1374C65.8154 62.95 65.6614 62.782 65.6614 62.432V59.352C65.6614 58.526 65.4094 57.896 64.9054 57.448C64.4014 57 63.7014 56.776 62.7914 56.776C61.9234 56.776 61.2234 56.972 60.6914 57.364C60.1594 57.756 59.8514 58.302 59.7674 59.002H60.9154C60.9854 58.638 61.1814 58.358 61.5034 58.134C61.8254 57.91 62.2314 57.798 62.7354 57.798C63.2954 57.798 63.7294 57.938 64.0374 58.19C64.3454 58.456 64.5134 58.82 64.5134 59.282V59.772H62.4134C61.4754 59.772 60.7614 59.968 60.2714 60.346C59.7814 60.738 59.5434 61.284 59.5434 61.998C59.5434 62.642 59.7814 63.16 60.2574 63.524C60.7334 63.902 61.3774 64.084 62.1754 64.084C63.2114 64.084 64.0094 63.692 64.5694 62.894C64.5694 63.258 64.6814 63.538 64.8774 63.72C65.0734 63.916 65.3954 64 65.8574 64H66.4874V62.95ZM64.5134 60.738V61.088C64.5134 61.704 64.3034 62.194 63.9114 62.558C63.5054 62.922 62.9594 63.104 62.2594 63.104C61.7834 63.104 61.4054 63.006 61.1254 62.782C60.8454 62.572 60.7054 62.292 60.7054 61.928C60.7054 61.144 61.2374 60.738 62.3014 60.738H64.5134ZM67.9189 56.86H66.7009L69.5009 64.056L69.1369 64.91C69.0249 65.162 68.9409 65.344 68.8709 65.456C68.8009 65.568 68.7169 65.638 68.6049 65.68C68.4929 65.736 68.3249 65.75 68.1009 65.75H67.0789V66.8H68.4509C68.7729 66.8 69.0389 66.758 69.2349 66.646C69.4309 66.548 69.5849 66.394 69.7249 66.17C69.8509 65.96 70.0049 65.638 70.1729 65.204L73.4629 56.86H72.2449L70.1169 62.684L67.9189 56.86ZM78.1952 56.86H77.8732C77.2852 56.86 76.8372 56.958 76.5152 57.154C76.1792 57.35 75.9132 57.616 75.7172 57.938L75.5632 56.86H74.5692V64H75.7172V60.36C75.7172 59.688 75.8572 59.128 76.1512 58.666C76.4452 58.218 76.9352 57.98 77.6212 57.98H78.1952V56.86ZM80.5268 63.622C81.0588 63.93 81.6748 64.084 82.3748 64.084C83.0608 64.084 83.6768 63.93 84.2088 63.622C84.7408 63.314 85.1608 62.894 85.4688 62.334C85.7628 61.788 85.9168 61.158 85.9168 60.43C85.9168 59.716 85.7628 59.086 85.4688 58.526C85.1608 57.98 84.7408 57.546 84.2088 57.238C83.6768 56.93 83.0608 56.776 82.3748 56.776C81.6748 56.776 81.0588 56.93 80.5268 57.238C79.9948 57.546 79.5748 57.98 79.2808 58.526C78.9728 59.086 78.8328 59.716 78.8328 60.43C78.8328 61.158 78.9728 61.788 79.2808 62.334C79.5748 62.894 79.9948 63.314 80.5268 63.622ZM83.6068 62.726C83.2428 62.95 82.8368 63.062 82.3748 63.062C81.8988 63.062 81.4928 62.95 81.1288 62.726C80.7648 62.502 80.4988 62.194 80.3028 61.788C80.1068 61.396 80.0088 60.934 80.0088 60.43C80.0088 59.926 80.1068 59.478 80.3028 59.072C80.4988 58.68 80.7648 58.358 81.1288 58.134C81.4928 57.91 81.8988 57.798 82.3748 57.798C82.8368 57.798 83.2428 57.91 83.6068 58.134C83.9708 58.358 84.2508 58.68 84.4468 59.072C84.6428 59.478 84.7408 59.926 84.7408 60.43C84.7408 60.934 84.6428 61.396 84.4468 61.788C84.2508 62.194 83.9708 62.502 83.6068 62.726ZM87.4832 54.2V64H88.6312V54.2H87.4832ZM90.4539 54.2V64H91.6019V54.2H90.4539Z" fill="#515251"/>
<g clip-path="url(#clip0_4_6419)">
<path d="M22.5267 81.2008C22.5267 80.8736 22.5343 80.5456 22.5267 80.2184C22.5206 80.0452 22.5826 79.9984 22.7391 80.0007C23.1828 80.0095 23.6273 80.0127 24.0703 80.0007C24.2593 79.9952 24.313 80.0619 24.31 80.2549C24.3001 80.8696 24.3152 81.4851 24.3024 82.1007C24.2979 82.3262 24.3485 82.4183 24.5821 82.4088C25.0916 82.3961 25.0923 82.4088 25.0923 82.96C25.0923 83.2872 25.0855 83.6152 25.0923 83.9424C25.0969 84.1013 25.0568 84.1648 24.8898 84.168C24.3047 84.1807 24.3047 84.1887 24.3047 84.8185C24.3047 85.1258 24.3122 85.434 24.3047 85.7414C24.2994 85.9097 24.3538 85.9606 24.5141 85.9661C25.0923 85.9836 25.0923 85.9899 25.0923 86.5928C25.0923 86.9001 25.0855 87.2083 25.0923 87.5156C25.0976 87.6824 25.0447 87.734 24.883 87.7372C24.3039 87.7499 24.3047 87.7571 24.3047 88.3639C24.3047 88.8301 24.2979 89.2971 24.3047 89.7625C24.3047 89.9467 24.2465 90.0007 24.0779 89.9968C23.5873 89.9864 23.0952 89.9857 22.6046 89.9968C22.5355 90.0038 22.466 89.9885 22.4055 89.9528C22.345 89.9172 22.2963 89.863 22.2659 89.7974C21.9151 89.1859 21.5493 88.5839 21.2015 87.9707C21.1048 87.7992 21.0012 87.7221 20.8016 87.7261C20.1311 87.7412 19.4606 87.738 18.7901 87.7261C18.6041 87.7261 18.5497 87.7825 18.5535 87.9763C18.5648 88.5616 18.5489 89.147 18.5618 89.7323C18.5663 89.9451 18.5006 90.0023 18.3048 89.9952C17.8799 89.9809 17.4543 89.9777 17.0303 89.9952C16.8073 90.0055 16.7612 89.9158 16.7649 89.7053C16.777 89.1398 16.7596 88.5743 16.7733 88.0088C16.7785 87.7912 16.7264 87.7174 16.5079 87.7229C16.0052 87.7356 16.0045 87.7229 16.0045 87.2011C16.0045 86.8541 16.0105 86.5062 16.0045 86.1591C16.0045 86.0003 16.0566 85.9598 16.201 85.9542C16.7717 85.9304 16.7717 85.9248 16.7717 85.3188C16.7717 85.0115 16.7634 84.7033 16.7717 84.3959C16.7778 84.218 16.7256 84.1577 16.5495 84.1577C16.0045 84.1521 16.0045 84.1442 16.0045 83.5604C16.0045 83.2531 16.0135 82.9449 16.0045 82.6375C15.9969 82.4565 16.0513 82.3993 16.2267 82.3993C16.7732 82.3905 16.7733 82.3818 16.7733 81.7925C16.7733 81.2763 16.7785 80.76 16.7733 80.2446C16.7733 80.0706 16.8141 79.9968 16.9955 80.0015C17.477 80.0135 17.9586 80.0119 18.4401 80.0015C18.5049 79.9961 18.5698 80.0116 18.626 80.0459C18.6822 80.0803 18.727 80.1318 18.7546 80.1937C19.1325 80.8561 19.5271 81.5106 19.9051 82.1745C19.9973 82.3334 20.0948 82.4128 20.2831 82.4128C20.9536 82.4001 21.6241 82.4017 22.2946 82.4128C22.4791 82.4128 22.5433 82.3564 22.535 82.1594C22.5206 81.8417 22.535 81.5241 22.535 81.2064L22.5267 81.2008ZM21.064 84.1632C21.4155 84.7661 21.7375 85.3212 22.0641 85.874C22.154 86.0257 22.3044 85.9582 22.4277 85.9534C22.5789 85.9471 22.5229 85.8073 22.5237 85.7207C22.529 85.2744 22.5237 84.828 22.5237 84.3817C22.5237 84.2736 22.5433 84.1593 22.3778 84.1617C21.9597 84.1672 21.5387 84.1632 21.064 84.1632ZM20.0109 85.9598L19.0101 84.2554C18.9194 84.1005 18.772 84.164 18.6502 84.1696C18.4991 84.1775 18.561 84.3181 18.5603 84.4023C18.5542 84.8479 18.5603 85.2934 18.5603 85.739C18.5603 85.8438 18.5331 85.9637 18.7016 85.9613C19.1189 85.9566 19.5385 85.9598 20.0109 85.9598Z" fill="#515251"/>
</g>
<path d="M34.144 85.366L30.434 88.446V90H37.616V88.306H33.346L35.544 86.514C36.23 85.954 36.734 85.436 37.07 84.946C37.406 84.456 37.574 83.868 37.574 83.196C37.574 82.258 37.252 81.502 36.622 80.942C35.992 80.382 35.11 80.102 33.962 80.102C33.248 80.102 32.618 80.256 32.086 80.536C31.54 80.816 31.12 81.208 30.826 81.712C30.532 82.216 30.392 82.776 30.392 83.392V83.658H32.422V83.504C32.422 82.986 32.562 82.566 32.842 82.258C33.122 81.95 33.5 81.796 33.962 81.796C34.438 81.796 34.816 81.936 35.096 82.188C35.376 82.44 35.53 82.804 35.53 83.28C35.53 83.658 35.418 84.008 35.194 84.316C34.97 84.638 34.62 84.988 34.144 85.366ZM40.9764 88.306C40.6964 87.97 40.3464 87.788 39.9124 87.788C39.5624 87.788 39.2684 87.9 39.0304 88.124C38.7924 88.348 38.6804 88.6 38.6804 88.908C38.6804 89.258 38.7644 89.524 38.9464 89.706C39.1284 89.888 39.3524 89.972 39.6324 89.972C39.7724 89.972 39.9264 89.944 40.0804 89.86C40.0804 89.902 40.0944 89.972 40.0944 90.056C40.0944 90.336 39.9684 90.56 39.7444 90.728C39.5204 90.91 39.1844 91.008 38.7644 91.008V92.03C39.5764 92.03 40.2064 91.82 40.6824 91.4C41.1444 90.994 41.3824 90.406 41.3824 89.622C41.3824 89.09 41.2424 88.642 40.9764 88.306ZM46.1831 85.366L42.4731 88.446V90H49.6551V88.306H45.3851L47.5831 86.514C48.2691 85.954 48.7731 85.436 49.1091 84.946C49.4451 84.456 49.6131 83.868 49.6131 83.196C49.6131 82.258 49.2911 81.502 48.6611 80.942C48.0311 80.382 47.1491 80.102 46.0011 80.102C45.2871 80.102 44.6571 80.256 44.1251 80.536C43.5791 80.816 43.1591 81.208 42.8651 81.712C42.5711 82.216 42.4311 82.776 42.4311 83.392V83.658H44.4611V83.504C44.4611 82.986 44.6011 82.566 44.8811 82.258C45.1611 81.95 45.5391 81.796 46.0011 81.796C46.4771 81.796 46.8551 81.936 47.1351 82.188C47.4151 82.44 47.5691 82.804 47.5691 83.28C47.5691 83.658 47.4571 84.008 47.2331 84.316C47.0091 84.638 46.6591 84.988 46.1831 85.366ZM58.2515 83.056C58.0835 82.468 57.8315 81.95 57.5235 81.53C57.1735 81.082 56.7395 80.732 56.2355 80.48C55.7315 80.228 55.1435 80.102 54.4995 80.102C53.7715 80.102 53.1415 80.256 52.5815 80.536C52.0215 80.816 51.6015 81.222 51.2935 81.726C50.9855 82.23 50.8455 82.804 50.8455 83.448C50.8455 84.106 50.9715 84.68 51.2515 85.17C51.5315 85.674 51.9235 86.052 52.4275 86.318C52.9315 86.598 53.5055 86.724 54.1635 86.724C54.6255 86.724 55.0455 86.64 55.4235 86.458C55.8015 86.276 56.1095 86.024 56.3475 85.688C56.3615 85.674 56.4315 85.576 56.5715 85.38V85.632C56.5715 86.528 56.3895 87.228 56.0535 87.718C55.7175 88.222 55.2135 88.46 54.5695 88.46C54.1215 88.46 53.7435 88.362 53.4635 88.138C53.1835 87.928 52.9875 87.62 52.9035 87.228H50.9295C51.0415 88.138 51.4055 88.838 52.0215 89.342C52.6375 89.846 53.4635 90.084 54.4715 90.084C55.7595 90.084 56.7535 89.65 57.4535 88.754C58.1535 87.872 58.5035 86.612 58.5035 84.988C58.5035 84.288 58.4195 83.644 58.2515 83.056ZM53.2955 84.666C52.9875 84.344 52.8475 83.924 52.8475 83.42C52.8475 82.916 53.0015 82.51 53.3095 82.174C53.6175 81.852 54.0095 81.684 54.5135 81.684C55.0035 81.684 55.3955 81.852 55.7035 82.174C56.0115 82.51 56.1655 82.916 56.1655 83.42C56.1655 83.924 55.9975 84.344 55.6895 84.666C55.3815 85.002 54.9755 85.156 54.4855 85.156C53.9815 85.156 53.5895 85.002 53.2955 84.666ZM66.7081 85.716C66.3021 85.324 65.7841 85.058 65.1541 84.904C65.7281 84.764 66.1901 84.512 66.5401 84.148C66.8901 83.784 67.0721 83.322 67.0721 82.734C67.0721 81.95 66.7501 81.306 66.1201 80.83C65.4901 80.354 64.6081 80.116 63.4881 80.116C62.4101 80.116 61.5561 80.396 60.9121 80.928C60.2681 81.474 59.9461 82.216 59.9461 83.154H61.9201C61.9201 82.706 62.0881 82.356 62.3961 82.09C62.7041 81.838 63.0961 81.698 63.5721 81.698C64.0061 81.698 64.3561 81.81 64.6361 82.02C64.9021 82.244 65.0421 82.538 65.0421 82.916C65.0421 83.322 64.8881 83.644 64.5941 83.882C64.3001 84.12 63.8801 84.232 63.3481 84.232H62.4941V85.842H63.4601C64.0341 85.842 64.4821 85.954 64.7901 86.178C65.0981 86.402 65.2521 86.71 65.2521 87.102C65.2521 87.536 65.0841 87.872 64.7761 88.124C64.4681 88.376 64.0761 88.502 63.6001 88.502C63.0401 88.502 62.5921 88.348 62.2421 88.026C61.8781 87.718 61.6961 87.284 61.6961 86.738H59.6941C59.6941 87.788 60.0301 88.614 60.7161 89.202C61.3881 89.79 62.3121 90.084 63.4881 90.084C64.2441 90.084 64.9161 89.972 65.5041 89.734C66.0781 89.51 66.5261 89.174 66.8341 88.754C67.1421 88.334 67.3101 87.83 67.3101 87.27C67.3101 86.626 67.1001 86.108 66.7081 85.716ZM70.4549 88.306C70.1749 87.97 69.8249 87.788 69.3909 87.788C69.0409 87.788 68.7469 87.9 68.5089 88.124C68.2709 88.348 68.1589 88.6 68.1589 88.908C68.1589 89.258 68.2429 89.524 68.4249 89.706C68.6069 89.888 68.8309 89.972 69.1109 89.972C69.2509 89.972 69.4049 89.944 69.5589 89.86C69.5589 89.902 69.5729 89.972 69.5729 90.056C69.5729 90.336 69.4469 90.56 69.2229 90.728C68.9989 90.91 68.6629 91.008 68.2429 91.008V92.03C69.0549 92.03 69.6849 91.82 70.1609 91.4C70.6229 90.994 70.8609 90.406 70.8609 89.622C70.8609 89.09 70.7209 88.642 70.4549 88.306ZM71.3103 84.876V85.324C71.3103 86.304 71.4783 87.158 71.8143 87.872C72.1503 88.586 72.6263 89.132 73.2423 89.51C73.8443 89.902 74.5443 90.084 75.3423 90.084C76.1263 90.084 76.8263 89.902 77.4423 89.51C78.0583 89.132 78.5343 88.586 78.8703 87.872C79.2063 87.158 79.3883 86.304 79.3883 85.324V84.876C79.3883 83.924 79.2063 83.084 78.8703 82.356C78.5343 81.642 78.0583 81.096 77.4423 80.704C76.8263 80.312 76.1263 80.116 75.3423 80.116C74.5583 80.116 73.8583 80.312 73.2423 80.704C72.6263 81.096 72.1503 81.642 71.8143 82.356C71.4783 83.084 71.3103 83.924 71.3103 84.876ZM76.8123 82.65C77.1763 83.196 77.3723 83.966 77.3723 84.946V85.254C77.3723 86.248 77.1763 87.018 76.8123 87.564C76.4483 88.11 75.9583 88.376 75.3423 88.376C74.7263 88.376 74.2363 88.11 73.8723 87.564C73.5083 87.018 73.3263 86.248 73.3263 85.254V84.946C73.3263 83.966 73.5083 83.196 73.8723 82.65C74.2363 82.104 74.7263 81.824 75.3423 81.824C75.9583 81.824 76.4483 82.104 76.8123 82.65ZM80.4151 86.234V87.9H85.2591V90H87.2331V87.9H88.5911V86.22H87.2331V80.2H84.7411L80.4151 86.234ZM82.3331 86.22L85.2591 82.16V86.22H82.3331ZM89.4288 86.234V87.9H94.2728V90H96.2468V87.9H97.6048V86.22H96.2468V80.2H93.7548L89.4288 86.234ZM91.3468 86.22L94.2728 82.16V86.22H91.3468ZM100.644 88.306C100.364 87.97 100.014 87.788 99.5804 87.788C99.2304 87.788 98.9364 87.9 98.6984 88.124C98.4604 88.348 98.3484 88.6 98.3484 88.908C98.3484 89.258 98.4324 89.524 98.6144 89.706C98.7964 89.888 99.0204 89.972 99.3004 89.972C99.4404 89.972 99.5944 89.944 99.7484 89.86C99.7484 89.902 99.7624 89.972 99.7624 90.056C99.7624 90.336 99.6364 90.56 99.4124 90.728C99.1884 90.91 98.8524 91.008 98.4324 91.008V92.03C99.2444 92.03 99.8744 91.82 100.35 91.4C100.812 90.994 101.05 90.406 101.05 89.622C101.05 89.09 100.91 88.642 100.644 88.306ZM108.759 85.716C108.353 85.324 107.835 85.058 107.205 84.904C107.779 84.764 108.241 84.512 108.591 84.148C108.941 83.784 109.123 83.322 109.123 82.734C109.123 81.95 108.801 81.306 108.171 80.83C107.541 80.354 106.659 80.116 105.539 80.116C104.461 80.116 103.607 80.396 102.963 80.928C102.319 81.474 101.997 82.216 101.997 83.154H103.971C103.971 82.706 104.139 82.356 104.447 82.09C104.755 81.838 105.147 81.698 105.623 81.698C106.057 81.698 106.407 81.81 106.687 82.02C106.953 82.244 107.093 82.538 107.093 82.916C107.093 83.322 106.939 83.644 106.645 83.882C106.351 84.12 105.931 84.232 105.399 84.232H104.545V85.842H105.511C106.085 85.842 106.533 85.954 106.841 86.178C107.149 86.402 107.303 86.71 107.303 87.102C107.303 87.536 107.135 87.872 106.827 88.124C106.519 88.376 106.127 88.502 105.651 88.502C105.091 88.502 104.643 88.348 104.293 88.026C103.929 87.718 103.747 87.284 103.747 86.738H101.745C101.745 87.788 102.081 88.614 102.767 89.202C103.439 89.79 104.363 90.084 105.539 90.084C106.295 90.084 106.967 89.972 107.555 89.734C108.129 89.51 108.577 89.174 108.885 88.754C109.193 88.334 109.361 87.83 109.361 87.27C109.361 86.626 109.151 86.108 108.759 85.716ZM110.386 86.234V87.9H115.23V90H117.204V87.9H118.562V86.22H117.204V80.2H114.712L110.386 86.234ZM112.304 86.22L115.23 82.16V86.22H112.304ZM125.475 83.756C124.971 83.476 124.425 83.322 123.809 83.322C122.983 83.322 122.311 83.574 121.779 84.078L121.891 81.894H126.483V80.2H120.057L119.777 85.94H121.723C121.849 85.576 122.073 85.31 122.395 85.156C122.703 85.002 123.039 84.918 123.375 84.918C123.879 84.918 124.285 85.086 124.593 85.422C124.901 85.758 125.055 86.178 125.055 86.682C125.055 87.242 124.887 87.676 124.551 87.984C124.215 88.292 123.823 88.432 123.375 88.432C122.899 88.432 122.507 88.292 122.185 87.984C121.863 87.69 121.681 87.312 121.625 86.85H119.623C119.651 87.466 119.819 88.012 120.127 88.502C120.435 88.992 120.869 89.384 121.429 89.664C121.989 89.944 122.633 90.084 123.375 90.084C124.061 90.084 124.691 89.958 125.251 89.692C125.811 89.44 126.245 89.048 126.581 88.544C126.917 88.04 127.085 87.41 127.085 86.682C127.085 86.038 126.931 85.45 126.651 84.946C126.371 84.442 125.979 84.036 125.475 83.756ZM128.345 88.082C128.121 88.306 128.009 88.586 128.009 88.922C128.009 89.258 128.121 89.538 128.345 89.762C128.569 89.986 128.849 90.084 129.199 90.084C129.535 90.084 129.815 89.986 130.039 89.762C130.263 89.538 130.389 89.258 130.389 88.922C130.389 88.586 130.263 88.306 130.039 88.082C129.815 87.858 129.535 87.746 129.199 87.746C128.849 87.746 128.569 87.858 128.345 88.082ZM130.978 84.876V85.324C130.978 86.304 131.146 87.158 131.482 87.872C131.818 88.586 132.294 89.132 132.91 89.51C133.512 89.902 134.212 90.084 135.01 90.084C135.794 90.084 136.494 89.902 137.11 89.51C137.726 89.132 138.202 88.586 138.538 87.872C138.874 87.158 139.056 86.304 139.056 85.324V84.876C139.056 83.924 138.874 83.084 138.538 82.356C138.202 81.642 137.726 81.096 137.11 80.704C136.494 80.312 135.794 80.116 135.01 80.116C134.226 80.116 133.526 80.312 132.91 80.704C132.294 81.096 131.818 81.642 131.482 82.356C131.146 83.084 130.978 83.924 130.978 84.876ZM136.48 82.65C136.844 83.196 137.04 83.966 137.04 84.946V85.254C137.04 86.248 136.844 87.018 136.48 87.564C136.116 88.11 135.626 88.376 135.01 88.376C134.394 88.376 133.904 88.11 133.54 87.564C133.176 87.018 132.994 86.248 132.994 85.254V84.946C132.994 83.966 133.176 83.196 133.54 82.65C133.904 82.104 134.394 81.824 135.01 81.824C135.626 81.824 136.116 82.104 136.48 82.65ZM146.159 83.756C145.655 83.476 145.109 83.322 144.493 83.322C143.667 83.322 142.995 83.574 142.463 84.078L142.575 81.894H147.167V80.2H140.741L140.461 85.94H142.407C142.533 85.576 142.757 85.31 143.079 85.156C143.387 85.002 143.723 84.918 144.059 84.918C144.563 84.918 144.969 85.086 145.277 85.422C145.585 85.758 145.739 86.178 145.739 86.682C145.739 87.242 145.571 87.676 145.235 87.984C144.899 88.292 144.507 88.432 144.059 88.432C143.583 88.432 143.191 88.292 142.869 87.984C142.547 87.69 142.365 87.312 142.309 86.85H140.307C140.335 87.466 140.503 88.012 140.811 88.502C141.119 88.992 141.553 89.384 142.113 89.664C142.673 89.944 143.317 90.084 144.059 90.084C144.745 90.084 145.375 89.958 145.935 89.692C146.495 89.44 146.929 89.048 147.265 88.544C147.601 88.04 147.769 87.41 147.769 86.682C147.769 86.038 147.615 85.45 147.335 84.946C147.055 84.442 146.663 84.036 146.159 83.756Z" fill="#515251"/>
<rect x="187" y="32" width="171" height="80" rx="16" fill="#F2F1F1"/>
<path d="M203.35 54.2V55.32H206.528V64H207.746V55.32H210.924V54.2H203.35ZM212.49 63.622C213.022 63.93 213.638 64.084 214.338 64.084C215.024 64.084 215.64 63.93 216.172 63.622C216.704 63.314 217.124 62.894 217.432 62.334C217.726 61.788 217.88 61.158 217.88 60.43C217.88 59.716 217.726 59.086 217.432 58.526C217.124 57.98 216.704 57.546 216.172 57.238C215.64 56.93 215.024 56.776 214.338 56.776C213.638 56.776 213.022 56.93 212.49 57.238C211.958 57.546 211.538 57.98 211.244 58.526C210.936 59.086 210.796 59.716 210.796 60.43C210.796 61.158 210.936 61.788 211.244 62.334C211.538 62.894 211.958 63.314 212.49 63.622ZM215.57 62.726C215.206 62.95 214.8 63.062 214.338 63.062C213.862 63.062 213.456 62.95 213.092 62.726C212.728 62.502 212.462 62.194 212.266 61.788C212.07 61.396 211.972 60.934 211.972 60.43C211.972 59.926 212.07 59.478 212.266 59.072C212.462 58.68 212.728 58.358 213.092 58.134C213.456 57.91 213.862 57.798 214.338 57.798C214.8 57.798 215.206 57.91 215.57 58.134C215.934 58.358 216.214 58.68 216.41 59.072C216.606 59.478 216.704 59.926 216.704 60.43C216.704 60.934 216.606 61.396 216.41 61.788C216.214 62.194 215.934 62.502 215.57 62.726ZM219.84 57.91V62.138C219.84 62.782 219.98 63.258 220.26 63.552C220.54 63.86 221.03 64 221.702 64H223.018V62.95H221.772C221.478 62.95 221.268 62.894 221.156 62.768C221.044 62.642 220.988 62.432 220.988 62.124V57.91H222.794V56.86H220.988V54.858H219.84V56.86H218.552V57.91H219.84ZM230.653 62.95H230.303C229.981 62.95 229.827 62.782 229.827 62.432V59.352C229.827 58.526 229.575 57.896 229.071 57.448C228.567 57 227.867 56.776 226.957 56.776C226.089 56.776 225.389 56.972 224.857 57.364C224.325 57.756 224.017 58.302 223.933 59.002H225.081C225.151 58.638 225.347 58.358 225.669 58.134C225.991 57.91 226.397 57.798 226.901 57.798C227.461 57.798 227.895 57.938 228.203 58.19C228.511 58.456 228.679 58.82 228.679 59.282V59.772H226.579C225.641 59.772 224.927 59.968 224.437 60.346C223.947 60.738 223.709 61.284 223.709 61.998C223.709 62.642 223.947 63.16 224.423 63.524C224.899 63.902 225.543 64.084 226.341 64.084C227.377 64.084 228.175 63.692 228.735 62.894C228.735 63.258 228.847 63.538 229.043 63.72C229.239 63.916 229.561 64 230.023 64H230.653V62.95ZM228.679 60.738V61.088C228.679 61.704 228.469 62.194 228.077 62.558C227.671 62.922 227.125 63.104 226.425 63.104C225.949 63.104 225.571 63.006 225.291 62.782C225.011 62.572 224.871 62.292 224.871 61.928C224.871 61.144 225.403 60.738 226.467 60.738H228.679ZM231.786 54.2V64H232.934V54.2H231.786ZM238.839 54.2V64H245.265V62.88H240.057V59.576H244.243V58.456H240.057V55.32H245.083V54.2H238.839ZM256.626 57.532C256.122 57.028 255.478 56.776 254.68 56.776C253.532 56.776 252.706 57.238 252.202 58.134C252.006 57.686 251.698 57.35 251.306 57.126C250.914 56.902 250.452 56.776 249.948 56.776C249.066 56.776 248.366 57.14 247.862 57.84L247.708 56.86H246.714V64H247.862V60.234C247.862 59.52 248.03 58.946 248.366 58.498C248.702 58.05 249.164 57.826 249.752 57.826C250.298 57.826 250.718 58.008 251.026 58.372C251.32 58.736 251.474 59.268 251.474 59.954V64H252.622V60.178C252.622 59.45 252.79 58.876 253.126 58.456C253.462 58.036 253.938 57.826 254.54 57.826C255.072 57.826 255.492 58.008 255.786 58.372C256.08 58.736 256.234 59.268 256.234 59.954V64H257.382V59.884C257.382 58.82 257.13 58.036 256.626 57.532ZM264.466 57.21C263.948 56.93 263.36 56.776 262.702 56.776C261.666 56.776 260.84 57.196 260.252 58.008L260.098 56.86H259.104V66.8H260.252V62.908C260.476 63.272 260.798 63.566 261.218 63.776C261.624 63.986 262.114 64.084 262.702 64.084C263.346 64.084 263.934 63.93 264.466 63.622C264.984 63.314 265.39 62.894 265.684 62.334C265.978 61.788 266.132 61.158 266.132 60.43C266.132 59.674 265.978 59.03 265.684 58.47C265.39 57.924 264.984 57.504 264.466 57.21ZM264.298 62.334C263.864 62.824 263.29 63.062 262.59 63.062C262.128 63.062 261.722 62.95 261.358 62.726C260.994 62.502 260.728 62.194 260.532 61.788C260.336 61.382 260.238 60.92 260.238 60.402C260.238 59.898 260.336 59.45 260.532 59.058C260.728 58.666 260.994 58.358 261.358 58.134C261.722 57.91 262.128 57.798 262.59 57.798C263.29 57.798 263.864 58.05 264.298 58.54C264.732 59.03 264.956 59.66 264.956 60.43C264.956 61.214 264.732 61.844 264.298 62.334ZM267.694 54.2V64H268.842V54.2H267.694ZM272.107 63.622C272.639 63.93 273.255 64.084 273.955 64.084C274.641 64.084 275.257 63.93 275.789 63.622C276.321 63.314 276.741 62.894 277.049 62.334C277.343 61.788 277.497 61.158 277.497 60.43C277.497 59.716 277.343 59.086 277.049 58.526C276.741 57.98 276.321 57.546 275.789 57.238C275.257 56.93 274.641 56.776 273.955 56.776C273.255 56.776 272.639 56.93 272.107 57.238C271.575 57.546 271.155 57.98 270.861 58.526C270.553 59.086 270.413 59.716 270.413 60.43C270.413 61.158 270.553 61.788 270.861 62.334C271.155 62.894 271.575 63.314 272.107 63.622ZM275.187 62.726C274.823 62.95 274.417 63.062 273.955 63.062C273.479 63.062 273.073 62.95 272.709 62.726C272.345 62.502 272.079 62.194 271.883 61.788C271.687 61.396 271.589 60.934 271.589 60.43C271.589 59.926 271.687 59.478 271.883 59.072C272.079 58.68 272.345 58.358 272.709 58.134C273.073 57.91 273.479 57.798 273.955 57.798C274.417 57.798 274.823 57.91 275.187 58.134C275.551 58.358 275.831 58.68 276.027 59.072C276.223 59.478 276.321 59.926 276.321 60.43C276.321 60.934 276.223 61.396 276.027 61.788C275.831 62.194 275.551 62.502 275.187 62.726ZM279.294 56.86H278.076L280.876 64.056L280.512 64.91C280.4 65.162 280.316 65.344 280.246 65.456C280.176 65.568 280.092 65.638 279.98 65.68C279.868 65.736 279.7 65.75 279.476 65.75H278.454V66.8H279.826C280.148 66.8 280.414 66.758 280.61 66.646C280.806 66.548 280.96 66.394 281.1 66.17C281.226 65.96 281.38 65.638 281.548 65.204L284.838 56.86H283.62L281.492 62.684L279.294 56.86ZM285.839 58.512C285.559 59.072 285.419 59.702 285.419 60.43C285.419 61.158 285.559 61.788 285.853 62.348C286.147 62.908 286.567 63.328 287.099 63.636C287.631 63.944 288.247 64.084 288.961 64.084C289.773 64.084 290.459 63.86 291.019 63.398C291.579 62.936 291.929 62.334 292.069 61.606H290.907C290.781 62.068 290.543 62.432 290.179 62.684C289.815 62.936 289.381 63.062 288.877 63.062C288.205 63.062 287.673 62.852 287.267 62.432C286.847 62.012 286.637 61.452 286.623 60.752V60.654H292.167C292.181 60.43 292.195 60.276 292.195 60.164C292.167 59.478 292.013 58.876 291.733 58.358C291.439 57.854 291.047 57.462 290.543 57.182C290.039 56.916 289.451 56.776 288.807 56.776C288.135 56.776 287.547 56.93 287.043 57.238C286.525 57.546 286.119 57.966 285.839 58.512ZM291.005 59.702H286.693C286.749 59.142 286.973 58.68 287.393 58.316C287.799 57.966 288.275 57.784 288.821 57.784C289.423 57.784 289.927 57.952 290.319 58.288C290.711 58.624 290.949 59.1 291.005 59.702ZM293.923 58.512C293.643 59.072 293.503 59.702 293.503 60.43C293.503 61.158 293.643 61.788 293.937 62.348C294.231 62.908 294.651 63.328 295.183 63.636C295.715 63.944 296.331 64.084 297.045 64.084C297.857 64.084 298.543 63.86 299.103 63.398C299.663 62.936 300.013 62.334 300.153 61.606H298.991C298.865 62.068 298.627 62.432 298.263 62.684C297.899 62.936 297.465 63.062 296.961 63.062C296.289 63.062 295.757 62.852 295.351 62.432C294.931 62.012 294.721 61.452 294.707 60.752V60.654H300.251C300.265 60.43 300.279 60.276 300.279 60.164C300.251 59.478 300.097 58.876 299.817 58.358C299.523 57.854 299.131 57.462 298.627 57.182C298.123 56.916 297.535 56.776 296.891 56.776C296.219 56.776 295.631 56.93 295.127 57.238C294.609 57.546 294.203 57.966 293.923 58.512ZM299.089 59.702H294.777C294.833 59.142 295.057 58.68 295.477 58.316C295.883 57.966 296.359 57.784 296.905 57.784C297.507 57.784 298.011 57.952 298.403 58.288C298.795 58.624 299.033 59.1 299.089 59.702Z" fill="#515251"/>
<path d="M207.298 80.2H205.324V81.152C205.324 81.432 205.254 81.67 205.128 81.866C205.002 82.062 204.82 82.146 204.582 82.146H203.112V83.812H204.75C204.974 83.812 205.156 83.798 205.282 83.742V90H207.298V80.2ZM208.908 84.876V85.324C208.908 86.304 209.076 87.158 209.412 87.872C209.748 88.586 210.224 89.132 210.84 89.51C211.442 89.902 212.142 90.084 212.94 90.084C213.724 90.084 214.424 89.902 215.04 89.51C215.656 89.132 216.132 88.586 216.468 87.872C216.804 87.158 216.986 86.304 216.986 85.324V84.876C216.986 83.924 216.804 83.084 216.468 82.356C216.132 81.642 215.656 81.096 215.04 80.704C214.424 80.312 213.724 80.116 212.94 80.116C212.156 80.116 211.456 80.312 210.84 80.704C210.224 81.096 209.748 81.642 209.412 82.356C209.076 83.084 208.908 83.924 208.908 84.876ZM214.41 82.65C214.774 83.196 214.97 83.966 214.97 84.946V85.254C214.97 86.248 214.774 87.018 214.41 87.564C214.046 88.11 213.556 88.376 212.94 88.376C212.324 88.376 211.834 88.11 211.47 87.564C211.106 87.018 210.924 86.248 210.924 85.254V84.946C210.924 83.966 211.106 83.196 211.47 82.65C211.834 82.104 212.324 81.824 212.94 81.824C213.556 81.824 214.046 82.104 214.41 82.65ZM219.681 88.306C219.401 87.97 219.051 87.788 218.617 87.788C218.267 87.788 217.973 87.9 217.735 88.124C217.497 88.348 217.385 88.6 217.385 88.908C217.385 89.258 217.469 89.524 217.651 89.706C217.833 89.888 218.057 89.972 218.337 89.972C218.477 89.972 218.631 89.944 218.785 89.86C218.785 89.902 218.799 89.972 218.799 90.056C218.799 90.336 218.673 90.56 218.449 90.728C218.225 90.91 217.889 91.008 217.469 91.008V92.03C218.281 92.03 218.911 91.82 219.387 91.4C219.849 90.994 220.087 90.406 220.087 89.622C220.087 89.09 219.947 88.642 219.681 88.306ZM220.537 84.876V85.324C220.537 86.304 220.705 87.158 221.041 87.872C221.377 88.586 221.853 89.132 222.469 89.51C223.071 89.902 223.771 90.084 224.569 90.084C225.353 90.084 226.053 89.902 226.669 89.51C227.285 89.132 227.761 88.586 228.097 87.872C228.433 87.158 228.615 86.304 228.615 85.324V84.876C228.615 83.924 228.433 83.084 228.097 82.356C227.761 81.642 227.285 81.096 226.669 80.704C226.053 80.312 225.353 80.116 224.569 80.116C223.785 80.116 223.085 80.312 222.469 80.704C221.853 81.096 221.377 81.642 221.041 82.356C220.705 83.084 220.537 83.924 220.537 84.876ZM226.039 82.65C226.403 83.196 226.599 83.966 226.599 84.946V85.254C226.599 86.248 226.403 87.018 226.039 87.564C225.675 88.11 225.185 88.376 224.569 88.376C223.953 88.376 223.463 88.11 223.099 87.564C222.735 87.018 222.553 86.248 222.553 85.254V84.946C222.553 83.966 222.735 83.196 223.099 82.65C223.463 82.104 223.953 81.824 224.569 81.824C225.185 81.824 225.675 82.104 226.039 82.65ZM229.838 84.876V85.324C229.838 86.304 230.006 87.158 230.342 87.872C230.678 88.586 231.154 89.132 231.77 89.51C232.372 89.902 233.072 90.084 233.87 90.084C234.654 90.084 235.354 89.902 235.97 89.51C236.586 89.132 237.062 88.586 237.398 87.872C237.734 87.158 237.916 86.304 237.916 85.324V84.876C237.916 83.924 237.734 83.084 237.398 82.356C237.062 81.642 236.586 81.096 235.97 80.704C235.354 80.312 234.654 80.116 233.87 80.116C233.086 80.116 232.386 80.312 231.77 80.704C231.154 81.096 230.678 81.642 230.342 82.356C230.006 83.084 229.838 83.924 229.838 84.876ZM235.34 82.65C235.704 83.196 235.9 83.966 235.9 84.946V85.254C235.9 86.248 235.704 87.018 235.34 87.564C234.976 88.11 234.486 88.376 233.87 88.376C233.254 88.376 232.764 88.11 232.4 87.564C232.036 87.018 231.854 86.248 231.854 85.254V84.946C231.854 83.966 232.036 83.196 232.4 82.65C232.764 82.104 233.254 81.824 233.87 81.824C234.486 81.824 234.976 82.104 235.34 82.65ZM239.138 84.876V85.324C239.138 86.304 239.306 87.158 239.642 87.872C239.978 88.586 240.454 89.132 241.07 89.51C241.672 89.902 242.372 90.084 243.17 90.084C243.954 90.084 244.654 89.902 245.27 89.51C245.886 89.132 246.362 88.586 246.698 87.872C247.034 87.158 247.216 86.304 247.216 85.324V84.876C247.216 83.924 247.034 83.084 246.698 82.356C246.362 81.642 245.886 81.096 245.27 80.704C244.654 80.312 243.954 80.116 243.17 80.116C242.386 80.116 241.686 80.312 241.07 80.704C240.454 81.096 239.978 81.642 239.642 82.356C239.306 83.084 239.138 83.924 239.138 84.876ZM244.64 82.65C245.004 83.196 245.2 83.966 245.2 84.946V85.254C245.2 86.248 245.004 87.018 244.64 87.564C244.276 88.11 243.786 88.376 243.17 88.376C242.554 88.376 242.064 88.11 241.7 87.564C241.336 87.018 241.154 86.248 241.154 85.254V84.946C241.154 83.966 241.336 83.196 241.7 82.65C242.064 82.104 242.554 81.824 243.17 81.824C243.786 81.824 244.276 82.104 244.64 82.65Z" fill="#515251"/>
<defs>
<clipPath id="clip0_4_6419">
<rect width="9.09091" height="10" fill="white" transform="translate(16 80)"/>
</clipPath>
</defs>
</svg>
