<svg width="390" height="39" viewBox="0 0 390 39" fill="none" xmlns="http://www.w3.org/2000/svg">
<path fill-rule="evenodd" clip-rule="evenodd" d="M339.883 19.6075C339.883 17.2848 341.766 15.4019 344.089 15.4019H358.809C361.131 15.4019 363.014 17.2848 363.014 19.6075V24.8645C363.014 27.1872 361.131 29.0701 358.809 29.0701H344.089C341.766 29.0701 339.883 27.1872 339.883 24.8645V19.6075Z" fill="#B2B2B2"/>
<path d="M339.883 19.6075C339.883 17.2848 341.766 15.4019 344.089 15.4019H356.706V29.0701H344.089C341.766 29.0701 339.883 27.1872 339.883 24.8645V19.6075Z" fill="#292A29"/>
<path d="M364.065 20.4565V24.7232C364.924 24.3618 365.482 23.5212 365.482 22.5898C365.482 21.6585 364.924 20.8179 364.065 20.4565Z" fill="#B2B2B2"/>
<path d="M345.254 25.9159L348.412 19.8734V19.781H344.674V18.5027H349.972V19.7964L346.877 25.9159H345.254Z" fill="white"/>
<path d="M354.178 26.1058C353.641 26.1058 353.162 25.9912 352.741 25.7619C352.323 25.5326 351.988 25.2006 351.735 24.7659C351.321 24.1293 351.113 23.2959 351.113 22.2658C351.113 21.0371 351.387 20.0719 351.935 19.3703C352.482 18.6687 353.239 18.3179 354.204 18.3179C354.909 18.3179 355.51 18.5078 356.006 18.8877C356.506 19.2676 356.809 19.7673 356.915 20.3868H355.38C355.308 20.1438 355.164 19.9504 354.948 19.8067C354.736 19.6629 354.485 19.5911 354.194 19.5911C353.687 19.5911 353.288 19.8187 352.998 20.2738C352.71 20.7256 352.575 21.3365 352.592 22.1066H352.684C352.852 21.7575 353.1 21.4888 353.429 21.3006C353.761 21.1089 354.142 21.0131 354.574 21.0131C355.275 21.0131 355.857 21.2458 356.319 21.7113C356.781 22.1768 357.012 22.7637 357.012 23.4722C357.012 24.2423 356.747 24.8737 356.216 25.3666C355.686 25.8594 355.007 26.1058 354.178 26.1058ZM353.208 24.4528C353.465 24.706 353.783 24.8327 354.163 24.8327C354.543 24.8327 354.861 24.7077 355.118 24.4579C355.378 24.2046 355.508 23.8915 355.508 23.5184C355.508 23.1419 355.381 22.8305 355.128 22.5841C354.875 22.3342 354.555 22.2093 354.168 22.2093C353.781 22.2093 353.46 22.3325 353.203 22.5789C352.95 22.8253 352.823 23.1334 352.823 23.503C352.823 23.8795 352.951 24.1961 353.208 24.4528Z" fill="white"/>
<path fill-rule="evenodd" clip-rule="evenodd" d="M326.74 18.0988C329.207 18.0989 331.579 19.0663 333.367 20.801C333.501 20.935 333.717 20.9333 333.849 20.7973L335.136 19.4717C335.203 19.4027 335.241 19.3092 335.24 19.212C335.239 19.1148 335.201 19.0218 335.133 18.9536C330.441 14.3638 323.039 14.3638 318.347 18.9536C318.279 19.0217 318.241 19.1147 318.24 19.2119C318.239 19.3092 318.277 19.4026 318.344 19.4717L319.631 20.7973C319.763 20.9335 319.979 20.9352 320.113 20.801C321.901 19.0662 324.274 18.0988 326.74 18.0988ZM326.776 22.1006C328.131 22.1005 329.438 22.6146 330.443 23.5432C330.578 23.6749 330.792 23.6721 330.925 23.5367L332.21 22.2111C332.278 22.1416 332.315 22.0473 332.314 21.9493C332.313 21.8513 332.274 21.7577 332.205 21.6896C329.146 18.785 324.409 18.785 321.349 21.6896C321.28 21.7577 321.241 21.8513 321.24 21.9494C321.239 22.0474 321.277 22.1417 321.345 22.2111L322.63 23.5367C322.762 23.6721 322.976 23.6749 323.112 23.5432C324.116 22.6153 325.422 22.1011 326.776 22.1006ZM329.39 24.6881C329.392 24.7864 329.354 24.8811 329.285 24.95L327.062 27.2402C326.997 27.3075 326.908 27.3454 326.815 27.3454C326.722 27.3454 326.633 27.3075 326.568 27.2402L324.345 24.95C324.276 24.8811 324.238 24.7863 324.24 24.688C324.242 24.5897 324.284 24.4966 324.355 24.4308C325.775 23.2049 327.855 23.2049 329.275 24.4308C329.346 24.4967 329.388 24.5898 329.39 24.6881Z" fill="#292A29"/>
<path d="M305.36 18.5112C305.36 17.9589 305.808 17.5112 306.36 17.5112H307.36C307.912 17.5112 308.36 17.9589 308.36 18.5112V26.5112C308.36 27.0635 307.912 27.5112 307.36 27.5112H306.36C305.808 27.5112 305.36 27.0635 305.36 26.5112V18.5112Z" fill="#292A29"/>
<path d="M310.36 16.5112C310.36 15.9589 310.808 15.5112 311.36 15.5112H312.36C312.912 15.5112 313.36 15.9589 313.36 16.5112V26.5112C313.36 27.0635 312.912 27.5112 312.36 27.5112H311.36C310.808 27.5112 310.36 27.0635 310.36 26.5112V16.5112Z" fill="#292A29"/>
<path d="M300.36 22.0112C300.36 21.4589 300.808 21.0112 301.36 21.0112H302.36C302.912 21.0112 303.36 21.4589 303.36 22.0112V26.5112C303.36 27.0635 302.912 27.5112 302.36 27.5112H301.36C300.808 27.5112 300.36 27.0635 300.36 26.5112V22.0112Z" fill="#292A29"/>
<path d="M295.36 24.5112C295.36 23.9589 295.808 23.5112 296.36 23.5112H297.36C297.912 23.5112 298.36 23.9589 298.36 24.5112V26.5112C298.36 27.0635 297.912 27.5112 297.36 27.5112H296.36C295.808 27.5112 295.36 27.0635 295.36 26.5112V24.5112Z" fill="#292A29"/>
<path d="M46.3865 25.9564C44.0239 25.9564 42.4302 24.5148 42.278 22.6168L42.27 22.5127H44.1761L44.1841 22.5687C44.3363 23.5137 45.2092 24.2666 46.3945 24.2666C47.748 24.2666 48.677 23.3135 48.677 21.952V21.936C48.677 20.5906 47.732 19.6455 46.4105 19.6455C45.7618 19.6455 45.2012 19.8377 44.7767 20.2222C44.5685 20.3983 44.3763 20.6226 44.2402 20.8789H42.4702L43.0308 14.1115H49.9664V15.8093H44.6406L44.3203 19.3252H44.4564C44.9369 18.5483 45.8339 18.0838 46.9231 18.0838C49.0774 18.0838 50.6391 19.6856 50.6391 21.896V21.912C50.6391 24.3146 48.8852 25.9564 46.3865 25.9564ZM54.3232 18.1799C53.5944 18.1799 53.0498 17.6193 53.0498 16.9146C53.0498 16.2018 53.5944 15.6492 54.3232 15.6492C55.06 15.6492 55.5965 16.2018 55.5965 16.9146C55.5965 17.6193 55.06 18.1799 54.3232 18.1799ZM54.3232 24.1224C53.5944 24.1224 53.0498 23.5698 53.0498 22.857C53.0498 22.1443 53.5944 21.5916 54.3232 21.5916C55.06 21.5916 55.5965 22.1443 55.5965 22.857C55.5965 23.5698 55.06 24.1224 54.3232 24.1224ZM61.0585 25.6681V16.1457H60.9223L58.0472 18.1799V16.2338L61.0665 14.1115H63.1247V25.6681H61.0585ZM70.5168 25.9003C67.986 25.9003 66.3282 24.5228 66.1761 22.5447L66.1681 22.4486H68.1382L68.1462 22.5367C68.2583 23.5137 69.1633 24.2105 70.5168 24.2105C71.8543 24.2105 72.7432 23.4657 72.7432 22.3925V22.3765C72.7432 21.1592 71.8462 20.4864 70.3646 20.4864H69.0031V18.9488H70.3246C71.598 18.9488 72.4469 18.228 72.4469 17.2189V17.2029C72.4469 16.1457 71.7341 15.521 70.5008 15.521C69.2835 15.521 68.4425 16.1697 68.3384 17.2029L68.3304 17.283H66.4083L66.4163 17.1949C66.5925 15.1927 68.1702 13.8792 70.5008 13.8792C72.8794 13.8792 74.4251 15.1206 74.4251 16.9306V16.9466C74.4251 18.3802 73.3919 19.3332 72.0064 19.6215V19.6615C73.7043 19.8217 74.8335 20.8308 74.8335 22.4326V22.4486C74.8335 24.4828 73.0796 25.9003 70.5168 25.9003Z" fill="#292A29"/>
</svg>
